<svg width="87" height="87" viewBox="0 0 87 87" fill="none" xmlns="http://www.w3.org/2000/svg">
<g opacity="0.5">
<path d="M35.2324 59.8507C37.2652 61.0704 40.111 61.8835 43.3633 61.8835C46.6157 61.8835 49.4615 61.0704 51.4943 59.8507M55.5597 43.5889H55.6004" stroke="#DCBBAC" stroke-width="5" stroke-linecap="round" stroke-linejoin="round"/>
<path d="M73.3659 22.5016C76.2163 26.6459 78.1815 31.3334 79.1389 36.2713C80.5136 36.9371 81.673 37.9767 82.4842 39.2709C83.2954 40.5652 83.7256 42.0617 83.7256 43.5892C83.7256 45.1166 83.2954 46.6132 82.4842 47.9074C81.673 49.2016 80.5136 50.2412 79.1389 50.907C77.3838 59.0927 72.8747 66.4291 66.3639 71.6918C59.8532 76.9546 51.7346 79.8255 43.3628 79.8255C34.991 79.8255 26.8725 76.9546 20.3617 71.6918C13.8509 66.4291 9.34183 59.0927 7.58674 50.907C6.21203 50.2412 5.05267 49.2016 4.24146 47.9074C3.43025 46.6132 3 45.1166 3 43.5892C3 42.0617 3.43025 40.5652 4.24146 39.2709C5.05267 37.9767 6.21203 36.9371 7.58674 36.2713C9.27092 28.0205 13.7496 20.6031 20.267 15.2706C26.7845 9.93816 34.9419 7.017 43.3628 7C51.4937 7 57.5919 11.472 57.5919 17.1637C57.5919 22.8553 53.933 27.3273 49.461 27.3273C46.2086 27.3273 43.3628 25.7011 43.3628 23.2619M31.1664 43.5892H31.2071" stroke="#DCBBAC" stroke-width="5" stroke-linecap="round" stroke-linejoin="round"/>
</g>
</svg>
