<svg width="40" height="40" viewBox="0 0 40 40" fill="none" xmlns="http://www.w3.org/2000/svg">
<path fill-rule="evenodd" clip-rule="evenodd" d="M20 6.66699C21.425 6.66699 22.8867 6.70366 24.3033 6.76366L25.9767 6.84366L27.5783 6.93866L29.0783 7.04033L30.4483 7.14699C31.9353 7.26014 33.3347 7.89438 34.3999 8.93799C35.4652 9.98161 36.128 11.3676 36.2717 12.852L36.3383 13.5603L36.4633 15.077C36.58 16.6487 36.6667 18.362 36.6667 20.0003C36.6667 21.6387 36.58 23.352 36.4633 24.9237L36.3383 26.4403L36.2717 27.1487C36.1279 28.6333 35.4649 30.0195 34.3993 31.0632C33.3337 32.1068 31.9339 32.7409 30.4467 32.8536L29.08 32.9586L27.58 33.062L25.9767 33.157L24.3033 33.237C22.8697 33.2991 21.4349 33.3313 20 33.3336C18.565 33.3313 17.1303 33.2991 15.6966 33.237L14.0233 33.157L12.4216 33.062L10.9216 32.9586L9.55165 32.8536C8.06467 32.7405 6.66531 32.1063 5.60005 31.0626C4.53479 30.019 3.87196 28.633 3.72831 27.1487L3.66165 26.4403L3.53665 24.9237C3.4097 23.2855 3.34188 21.6433 3.33331 20.0003C3.33331 18.362 3.41998 16.6487 3.53665 15.077L3.66165 13.5603L3.72831 12.852C3.87191 11.3679 4.5345 9.98208 5.59942 8.9385C6.66434 7.89492 8.0633 7.26052 9.54998 7.14699L10.9183 7.04033L12.4183 6.93866L14.0216 6.84366L15.695 6.76366C17.1292 6.70154 18.5645 6.66931 20 6.66699ZM16.6666 15.9587V24.042C16.6666 24.812 17.5 25.292 18.1666 24.9087L25.1667 20.867C25.319 20.7793 25.4455 20.653 25.5335 20.5009C25.6214 20.3487 25.6678 20.1761 25.6678 20.0003C25.6678 19.8246 25.6214 19.6519 25.5335 19.4998C25.4455 19.3476 25.319 19.2213 25.1667 19.1337L18.1666 15.0937C18.0146 15.0059 17.8421 14.9597 17.6665 14.9597C17.4909 14.9597 17.3184 15.006 17.1664 15.0938C17.0143 15.1817 16.8881 15.308 16.8004 15.4601C16.7127 15.6122 16.6665 15.7847 16.6666 15.9603V15.9587Z" fill="white"/>
</svg>
