<svg width="87" height="87" viewBox="0 0 87 87" fill="none" xmlns="http://www.w3.org/2000/svg">
<g opacity="0.5" clip-path="url(#clip0_40_1908)">
<path d="M25.0438 27.9641C28.3401 27.9641 31.5013 26.6546 33.8321 24.3238C36.1629 21.993 37.4724 18.8318 37.4724 15.5355C37.4724 12.2392 36.1629 9.07799 33.8321 6.74718C31.5013 4.41637 28.3401 3.10693 25.0438 3.10693C21.7475 3.10693 18.5863 4.41637 16.2555 6.74718C13.9247 9.07799 12.6152 12.2392 12.6152 15.5355C12.6152 18.8318 13.9247 21.993 16.2555 24.3238C18.5863 26.6546 21.7475 27.9641 25.0438 27.9641Z" stroke="#DCBBAC" stroke-width="5" stroke-linecap="round" stroke-linejoin="round"/>
<path d="M35.5211 65.4051L33.2094 83.8926H16.9466L13.8395 59.0354H3.2876V49.714C3.28843 44.2886 5.31693 39.0593 8.97498 35.0526C12.633 31.0458 17.6565 28.5509 23.0594 28.0575C28.4624 27.564 33.8547 29.1077 38.178 32.3855C42.5014 35.6633 45.4436 40.4386 46.4272 45.7741M57.0225 56.4751V52.4359C57.0225 50.7877 57.6772 49.2071 58.8426 48.0417C60.0081 46.8763 61.5887 46.2216 63.2368 46.2216H65.7971C67.4452 46.2216 69.0259 46.8763 70.1913 48.0417C71.3567 49.2071 72.0114 50.7877 72.0114 52.4359V56.4751M45.3335 61.9561C45.3335 58.9298 47.7881 56.4751 50.8145 56.4751H78.2319C81.2582 56.4751 83.7129 58.9298 83.7129 61.9624V78.4116C83.7145 79.1318 83.5739 79.8453 83.299 80.511C83.0241 81.1767 82.6205 81.7816 82.1112 82.2909C81.6019 82.8002 80.997 83.2038 80.3313 83.4787C79.6656 83.7536 78.9521 83.8942 78.2319 83.8926H50.8145C50.0942 83.8942 49.3808 83.7536 48.715 83.4787C48.0493 83.2038 47.4444 82.8002 46.9352 82.2909C46.4259 81.7816 46.0222 81.1767 45.7473 80.511C45.4725 79.8453 45.3318 79.1318 45.3335 78.4116V61.9561Z" stroke="#DCBBAC" stroke-width="5" stroke-linecap="round" stroke-linejoin="round"/>
</g>
<defs>
<clipPath id="clip0_40_1908">
<rect width="87" height="87" fill="white"/>
</clipPath>
</defs>
</svg>
