<svg width="87" height="87" viewBox="0 0 87 87" fill="none" xmlns="http://www.w3.org/2000/svg">
<g opacity="0.5">
<path d="M7.25 7.25H58C64.8368 7.25 68.2515 7.25 70.3757 9.37425C72.5 11.4985 72.5 14.9132 72.5 21.75V43.5C72.5 50.3367 72.5 53.7515 70.3757 55.8757C68.2515 58 64.8368 58 58 58H32.625M36.25 23.5625H58M7.25 61.625V47.125C7.25 43.7066 7.25 41.9992 8.31212 40.9371C9.37425 39.875 11.0816 39.875 14.5 39.875H21.75M7.25 61.625H21.75M7.25 61.625V79.75M21.75 39.875V61.625M21.75 39.875H43.5M21.75 61.625V79.75" stroke="#DCBBAC" stroke-width="5" stroke-linecap="round" stroke-linejoin="round"/>
<path d="M21.75 23.5625C21.75 25.4853 20.9862 27.3294 19.6265 28.689C18.2669 30.0487 16.4228 30.8125 14.5 30.8125C12.5772 30.8125 10.7331 30.0487 9.37348 28.689C8.01384 27.3294 7.25 25.4853 7.25 23.5625C7.25 21.6397 8.01384 19.7956 9.37348 18.436C10.7331 17.0763 12.5772 16.3125 14.5 16.3125C16.4228 16.3125 18.2669 17.0763 19.6265 18.436C20.9862 19.7956 21.75 21.6397 21.75 23.5625Z" stroke="#DCBBAC" stroke-width="5"/>
</g>
</svg>
