<svg width="40" height="40" viewBox="0 0 40 40" fill="none" xmlns="http://www.w3.org/2000/svg">
<g clip-path="url(#clip0_0_2861)">
<path d="M20.0016 14.9997C18.6756 14.9997 17.4038 15.5265 16.4661 16.4641C15.5284 17.4018 15.0016 18.6736 15.0016 19.9997C15.0016 21.3258 15.5284 22.5975 16.4661 23.5352C17.4038 24.4729 18.6756 24.9997 20.0016 24.9997C21.3277 24.9997 22.5995 24.4729 23.5372 23.5352C24.4749 22.5975 25.0017 21.3258 25.0017 19.9997C25.0017 18.6736 24.4749 17.4018 23.5372 16.4641C22.5995 15.5265 21.3277 14.9997 20.0016 14.9997ZM20.0016 11.6663C22.2118 11.6663 24.3314 12.5443 25.8942 14.1071C27.457 15.6699 28.335 17.7895 28.335 19.9997C28.335 22.2098 27.457 24.3294 25.8942 25.8922C24.3314 27.455 22.2118 28.333 20.0016 28.333C17.7915 28.333 15.6719 27.455 14.1091 25.8922C12.5463 24.3294 11.6683 22.2098 11.6683 19.9997C11.6683 17.7895 12.5463 15.6699 14.1091 14.1071C15.6719 12.5443 17.7915 11.6663 20.0016 11.6663ZM30.835 11.2497C30.835 11.8022 30.6155 12.3321 30.2248 12.7228C29.8341 13.1135 29.3042 13.333 28.7516 13.333C28.1991 13.333 27.6692 13.1135 27.2785 12.7228C26.8878 12.3321 26.6683 11.8022 26.6683 11.2497C26.6683 10.6971 26.8878 10.1672 27.2785 9.77654C27.6692 9.38584 28.1991 9.16634 28.7516 9.16634C29.3042 9.16634 29.8341 9.38584 30.2248 9.77654C30.6155 10.1672 30.835 10.6971 30.835 11.2497ZM20.0016 6.66634C15.8783 6.66634 15.205 6.67801 13.2866 6.76301C11.98 6.82468 11.1033 6.99968 10.29 7.31634C9.6097 7.56696 8.99452 7.9674 8.48998 8.48801C7.96877 8.99237 7.56775 9.60757 7.31665 10.288C6.99998 11.1047 6.82498 11.9797 6.76498 13.2847C6.67831 15.1247 6.66665 15.768 6.66665 19.9997C6.66665 24.1247 6.67831 24.7963 6.76331 26.7147C6.82498 28.0197 6.99998 28.898 7.31498 29.7097C7.59831 30.4347 7.93165 30.9563 8.48498 31.5097C9.04665 32.0697 9.56831 32.4047 10.285 32.6813C11.1083 32.9997 11.985 33.1763 13.285 33.2363C15.125 33.323 15.7683 33.333 20 33.333C24.125 33.333 24.7966 33.3213 26.715 33.2363C28.0183 33.1747 28.895 32.9997 29.71 32.6847C30.3903 32.4341 31.0055 32.0336 31.51 31.513C32.0717 30.953 32.4067 30.4313 32.6833 29.713C33 28.893 33.1767 28.0163 33.2367 26.713C33.3233 24.8747 33.3333 24.2297 33.3333 19.9997C33.3333 15.8763 33.3217 15.203 33.2367 13.2847C33.175 11.9813 32.9983 11.1013 32.6833 10.288C32.4327 9.60773 32.0323 8.99254 31.5117 8.48801C31.0073 7.9668 30.3921 7.56578 29.7117 7.31468C28.895 6.99801 28.0183 6.82301 26.715 6.76301C24.8766 6.67634 24.2333 6.66634 20 6.66634M20 3.33301C24.5283 3.33301 25.0933 3.34967 26.8716 3.43301C28.645 3.51634 29.855 3.79467 30.9167 4.20801C32.0167 4.63134 32.9433 5.20467 33.87 6.12967C34.7178 6.96256 35.3736 7.97046 35.7917 9.08301C36.2033 10.1447 36.4833 11.3547 36.5667 13.1297C36.645 14.9063 36.6667 15.4713 36.6667 19.9997C36.6667 24.528 36.65 25.093 36.5667 26.8697C36.4833 28.6463 36.2033 29.853 35.7917 30.9163C35.3736 32.0289 34.7178 33.0368 33.87 33.8697C33.0371 34.7175 32.0292 35.3733 30.9167 35.7913C29.855 36.203 28.645 36.483 26.8716 36.5663C25.0933 36.6447 24.5283 36.6663 20 36.6663C15.4716 36.6663 14.9066 36.6497 13.1283 36.5663C11.355 36.483 10.1466 36.203 9.08331 35.7913C7.97077 35.3733 6.96287 34.7175 6.12998 33.8697C5.28216 33.0368 4.62634 32.0289 4.20831 30.9163C3.79498 29.8547 3.51665 28.6447 3.43331 26.8697C3.35331 25.093 3.33331 24.528 3.33331 19.9997C3.33331 15.4713 3.34998 14.9063 3.43331 13.1297C3.51665 11.353 3.79498 10.1463 4.20831 9.08301C4.62634 7.97046 5.28216 6.96256 6.12998 6.12967C6.96287 5.28185 7.97077 4.62603 9.08331 4.20801C10.145 3.79467 11.3533 3.51634 13.1283 3.43301C14.9083 3.35467 15.4733 3.33301 20.0016 3.33301" fill="white"/>
</g>
<defs>
<clipPath id="clip0_0_2861">
<rect width="40" height="40" fill="white"/>
</clipPath>
</defs>
</svg>
