<svg width="87" height="87" viewBox="0 0 87 87" fill="none" xmlns="http://www.w3.org/2000/svg">
<g opacity="0.5">
<path d="M43.5 10.875L8.15625 19.0312V24.4688L43.5 16.3125L78.8438 24.4688V19.0312L43.5 10.875ZM27.1875 27.1875C18.4141 27.1875 9.85547 30.7572 9.85547 30.7572L8.15625 31.5185V73.4062H38.8265C39.7726 75.0321 41.4908 76.125 43.5 76.125C45.5064 76.125 47.2274 75.0321 48.1735 73.4062H78.8438V31.5212L77.1445 30.7572C77.1445 30.7572 68.5859 27.1875 59.8125 27.1875C51.8792 27.1875 44.9137 29.8519 43.5 30.4174C42.0863 29.8519 35.1208 27.1875 27.1875 27.1875ZM27.1875 32.625C32.4456 32.625 38.0625 34.3242 40.7812 35.2595V65.5056C37.7553 64.5078 32.7854 63.1267 27.1875 63.1267C21.4727 63.1267 16.8209 64.4425 13.5938 65.5056V35.2595C15.6872 34.5009 21.2062 32.625 27.1875 32.625ZM59.8125 32.625C65.7938 32.625 71.3128 34.5037 73.4062 35.2595V65.5056C70.1764 64.4452 65.5273 63.1267 59.8125 63.1267C54.2146 63.1267 49.2447 64.5078 46.2188 65.5056V35.2595C48.9375 34.3242 54.5544 32.625 59.8125 32.625Z" fill="#DCBBAC"/>
</g>
</svg>
