<svg width="87" height="87" viewBox="0 0 87 87" fill="none" xmlns="http://www.w3.org/2000/svg">
<g opacity="0.5">
<path d="M50.75 76.125V65.25C50.75 63.3271 49.9862 61.4831 48.6265 60.1234C47.2669 58.7638 45.4228 58 43.5 58C41.5772 58 39.7331 58.7638 38.3735 60.1234C37.0138 61.4831 36.25 63.3271 36.25 65.25V76.125M65.25 18.125V76.125M14.5 21.75L40.2592 8.01121C41.2655 7.50836 42.3751 7.24658 43.5 7.24658C44.6249 7.24658 45.7344 7.50836 46.7407 8.01121L72.5 21.75" stroke="#DCBBAC" stroke-width="5" stroke-linecap="round" stroke-linejoin="round"/>
<path d="M21.75 39.875L8.99 47.6579C8.45877 47.9813 8.01967 48.4359 7.71495 48.9781C7.41022 49.5202 7.2501 50.1317 7.25 50.7536V68.875C7.25 70.7978 8.01384 72.6419 9.37348 74.0015C10.7331 75.3612 12.5772 76.125 14.5 76.125H72.5C74.4228 76.125 76.2669 75.3612 77.6265 74.0015C78.9861 72.6419 79.75 70.7978 79.75 68.875V50.75C79.7493 50.1287 79.5889 49.518 79.2842 48.9765C78.9795 48.435 78.5407 47.981 78.01 47.6579L65.25 39.875M21.75 18.125V76.125" stroke="#DCBBAC" stroke-width="5" stroke-linecap="round" stroke-linejoin="round"/>
<path d="M43.5 39.875C47.5041 39.875 50.75 36.6291 50.75 32.625C50.75 28.6209 47.5041 25.375 43.5 25.375C39.4959 25.375 36.25 28.6209 36.25 32.625C36.25 36.6291 39.4959 39.875 43.5 39.875Z" stroke="#DCBBAC" stroke-width="5" stroke-linecap="round" stroke-linejoin="round"/>
</g>
</svg>
