<svg width="87" height="87" viewBox="0 0 87 87" fill="none" xmlns="http://www.w3.org/2000/svg">
<g opacity="0.5">
<path d="M7.4043 59.8125C7.4043 58.8511 7.78622 57.9291 8.46603 57.2492C9.14585 56.5694 10.0679 56.1875 11.0293 56.1875H21.9043V43.5L43.6543 29L65.4043 43.5V56.1875H76.2793C77.2407 56.1875 78.1627 56.5694 78.8426 57.2492C79.5224 57.9291 79.9043 58.8511 79.9043 59.8125V76.125C79.9043 77.0864 79.5224 78.0084 78.8426 78.6883C78.1627 79.3681 77.2407 79.75 76.2793 79.75H7.4043V59.8125Z" stroke="#DCBBAC" stroke-width="5" stroke-linejoin="round"/>
<path d="M43.6543 10.875V29" stroke="#DCBBAC" stroke-width="5" stroke-linecap="round"/>
<path d="M50.9043 79.7502V56.1877H36.4043V79.7502M32.7793 79.7502H54.5293M65.4043 21.7502V10.8752C65.4043 10.8752 62.6855 16.3127 54.5293 10.8752C46.373 5.43766 43.6543 10.8752 43.6543 10.8752V21.7502C43.6543 21.7502 46.373 16.3127 54.5293 21.7502C62.6855 27.1877 65.4043 21.7502 65.4043 21.7502Z" stroke="#DCBBAC" stroke-width="5" stroke-linecap="round" stroke-linejoin="round"/>
</g>
</svg>
