<svg width="290" height="57" viewBox="0 0 290 57" fill="none" xmlns="http://www.w3.org/2000/svg">
<g filter="url(#filter0_d_0_2839)">
<mask id="path-1-outside-1_0_2839" maskUnits="userSpaceOnUse" x="0.463989" y="-0.711914" width="288" height="55" fill="black">
<rect fill="white" x="0.463989" y="-0.711914" width="288" height="55"/>
<path d="M39.424 31.7521L42.4 32.4721L42.112 34.3921L38.848 33.6241L38.512 35.3521L41.824 36.0721L41.536 37.8961L38.176 37.1281L37.84 38.8561L41.248 39.6241L40.96 41.4481L37.456 40.6321L37.12 42.4081L40.672 43.1761L40.336 45.3361L32.272 43.2241L31.792 45.0961L36.208 46.2481C34.288 48.8881 30.928 50.2801 26.32 50.2801C18.736 50.2801 14.56 46.4881 14.56 39.5761C14.56 33.8641 17.44 29.9761 22.864 29.2081C23.776 29.1121 25.792 29.0161 27.328 29.4481L27.76 27.7681C26.128 27.3361 24.112 27.3841 23.008 27.4801V19.5121H19.984V7.22408H23.008V4.58408H39.424V7.22408H41.248V19.5601H36.112V21.4321H39.424V31.7521ZM12.64 39.5761C12.64 43.9441 14.08 47.2561 16.816 49.4161C15.088 49.8481 13.312 49.9921 11.776 49.4161C7.74399 47.8321 3.99999 44.9521 3.99999 33.6721C3.99999 22.4401 6.15999 4.92008 6.15999 4.92008H18.064V28.9681C14.56 31.0321 12.64 34.6321 12.64 39.5761ZM9.51999 8.37608H12.112V6.64808H7.98399L7.88799 7.41608C7.83999 7.65608 7.21599 13.0801 7.02399 15.1921L8.75199 15.3841C8.89599 13.7521 9.32799 9.96008 9.51999 8.37608ZM15.328 8.37608V6.64808H13.648V8.37608H15.328ZM23.44 12.9361V10.6321H30.4V9.00008H21.712V12.9361H23.44ZM31.984 9.04808V10.6801H33.616V9.04808H31.984ZM25.696 37.7521V40.0081H27.952V37.7521H25.696ZM61.8212 50.1361C45.6932 50.1361 45.4052 31.9921 45.4052 27.0961C45.4052 15.3361 51.3092 4.58408 51.3092 4.58408H65.9012V30.0241L60.0932 32.8081L62.2532 38.6161L64.0292 37.9441L62.4932 33.7201L77.6132 26.5681L78.5252 28.2001L75.5012 29.8321L76.3172 31.3201L79.3412 29.7361L80.1092 31.1761L77.0372 32.8081L77.8532 34.3441L80.8772 32.7121L81.6452 34.1521L78.5732 35.8321L79.4372 37.3201L82.4612 35.6881L82.7972 36.3121C82.7972 36.3121 77.9492 50.1361 61.8212 50.1361ZM48.7652 16.5841L50.6372 17.0161C51.4052 13.8001 53.3252 9.52808 53.9972 8.08808H58.0772V6.31208H52.7492C51.3092 9.28808 49.5332 13.4641 48.7652 16.5841ZM61.6292 6.31208H59.8052V8.08808H61.6292V6.31208ZM49.5332 39.8641L51.2132 39.2401C51.0212 38.7121 50.8772 38.1841 50.7812 37.6561L49.0532 37.9441C49.1972 38.6161 49.3412 39.2401 49.5332 39.8641ZM62.4932 48.4081V46.6321C57.5012 46.6321 53.6612 44.5201 51.7892 40.7761L50.1572 41.4961C52.3652 45.8641 56.8292 48.4081 62.4932 48.4081ZM114.558 43.7521C103.518 52.4881 90.4619 51.7201 84.5099 39.0961L85.9979 37.9441L88.4459 40.8241L89.7899 39.7681L87.3419 36.8401L88.6379 35.8321L91.0379 38.7601L92.3819 37.6561L90.0299 34.7761L91.3259 33.7681L93.6779 36.6481L95.0219 35.5441L92.6699 32.7121L94.2059 31.5601L98.5259 36.4081L100.014 35.1601L98.3339 33.1921L110.094 22.2961L108.798 20.9041L106.254 23.2561H85.6139V8.47208C85.6139 8.47208 102.846 5.25608 112.494 8.13608L111.678 3.00008H116.478L118.254 14.3281H113.502L112.926 11.0161L111.438 11.3041L112.206 15.8641H121.71C126.078 24.1201 123.918 36.3121 114.558 43.7521ZM122.766 3.00008L124.542 14.3281H119.838L118.062 3.00008H122.766ZM104.094 8.80808H102.366V10.5841H104.094V8.80808ZM88.2539 10.0561L87.4859 10.1521V14.3761H89.2619V11.6881C91.1819 11.4481 96.4139 10.7761 100.686 10.6321L100.59 8.90409C95.2619 9.09609 88.3019 10.0561 88.2539 10.0561ZM118.542 32.4241L120.222 32.9521L120.798 31.3201L119.07 30.8401C118.926 31.3681 118.734 31.8961 118.542 32.4241ZM108.222 43.0801L108.99 44.7121C112.686 42.9361 116.958 39.3361 119.406 34.7761L117.822 33.9601C115.566 38.1841 111.582 41.4961 108.222 43.0801ZM152.987 50.0881L151.739 48.6481L154.571 46.2961L153.275 44.8081L150.491 47.2081L149.243 45.7201L152.075 43.3201L150.827 41.8801L147.995 44.2321L146.795 42.7441L149.579 40.3921L148.331 38.9041L145.499 41.2561L143.963 39.4321L149.243 34.8721L148.043 33.4801L141.323 39.2881L147.563 46.7281C144.587 48.5521 140.171 50.3281 135.995 49.6081C129.899 48.5041 125.819 43.0321 125.627 31.9921C125.483 24.6481 126.539 18.2641 130.139 13.6561L129.227 6.45609H144.587L142.427 14.3761L144.299 14.8561L147.035 4.72808H161.291L158.027 16.3441L159.851 16.8721L160.763 13.6081C163.835 18.4561 164.747 24.5521 164.747 30.6961C164.747 39.4321 159.179 46.6321 152.987 50.0881ZM137.291 8.13608H131.483L132.059 12.9361L134.027 12.6961L133.691 10.0561H137.291V8.13608ZM140.939 8.13608H139.019V10.0561H140.939V8.13608ZM127.595 27.2401L129.515 27.2881C129.563 25.1281 130.427 19.4161 133.163 16.4881L131.723 15.2401C128.603 18.6481 127.691 24.7921 127.595 27.2401ZM145.595 20.7121H143.291V22.9201H145.595V20.7121ZM161.003 28.6321L162.827 28.5361C162.779 27.8161 162.683 27.1921 162.635 26.7601L160.859 27.0001C160.907 27.5281 161.003 28.0561 161.003 28.6321ZM135.179 29.0641H133.163V35.3521H135.179V29.0641ZM158.555 38.9041L159.995 39.9601C162.347 36.8881 162.875 33.2401 162.875 30.4561L161.099 30.5041C161.051 33.2401 160.523 36.2641 158.555 38.9041ZM197.752 10.0081C201.448 12.1681 205 16.5841 205 26.1361C205 35.6881 202.6 42.1201 196.552 44.4721C195.976 48.3121 195.4 49.5121 195.4 49.5121H179.8C179.8 49.5121 180.04 48.1681 180.328 43.8481C178.312 43.3201 176.728 42.6961 174.952 41.7361L175.336 40.3921L178.84 41.3521L179.272 39.6721L175.816 38.7121L176.248 37.1281L179.704 38.0881L180.184 36.4081L176.728 35.4481L177.16 33.9121L180.616 34.8241L181.048 33.1441L177.64 32.2321L178.024 30.8881L176.152 30.3601L172.744 42.6001C173.224 42.8881 173.848 43.4161 176.584 44.6161C176.392 45.4321 176.2 46.2001 175.96 46.8721H166.936V7.51208H179.608V9.57609C178.792 10.1041 177.016 11.2561 176.2 11.9761L177.304 13.2241C178.216 12.4561 180.376 11.1121 181.336 10.4881V4.63208H197.512C197.608 6.50408 197.704 8.28008 197.752 10.0081ZM170.44 18.8401V10.9681H172.744V9.24008H168.712V18.8401H170.44ZM174.28 9.24008V11.0161H176.008V9.24008H174.28ZM201.352 17.9281L199.72 18.6481C199.96 19.1281 200.152 19.6561 200.296 20.1841L201.976 19.7041C201.784 19.0801 201.592 18.4561 201.352 17.9281ZM200.056 33.8641L201.784 34.2961C202.84 29.5441 203.08 25.0321 202.36 21.3841L200.68 21.8161C201.304 25.2241 201.16 29.5921 200.056 33.8641ZM192.424 29.0161L194.008 30.1201C195.688 27.8161 195.688 24.6961 194.008 22.2961L192.424 23.4001C193.624 25.1281 193.624 27.3841 192.424 29.0161ZM178.216 24.2161V27.0961H180.232V24.2161H178.216ZM226.678 19.7521C214.486 19.7521 212.662 14.5681 212.662 11.4961C212.662 8.42409 214.486 3.04808 226.678 3.04808C238.87 3.04808 240.694 8.42409 240.694 11.4961C240.694 14.5681 238.87 19.7521 226.678 19.7521ZM215.35 8.95208L216.838 9.86408C217.99 8.04008 221.782 6.55208 225.142 6.60008V4.87208C221.686 4.82408 217.078 6.31208 215.35 8.95208ZM228.598 4.87208H226.774V6.60008H228.598V4.87208ZM210.934 48.0241L210.838 46.9201L214.534 46.1521L214.342 44.3761L210.646 45.1921L210.454 43.5601L214.198 42.7921L214.054 41.0161L210.262 41.7841L210.118 40.2001L213.862 39.3841L213.718 37.6561L209.926 38.4241L209.734 36.6481L233.83 28.5841L233.206 26.7121L221.206 30.7441H208.534V15.7201C208.726 15.7681 209.782 15.4801 211.462 15.0961C213.286 19.3201 218.614 21.6241 226.678 21.6241C233.542 21.6241 238.438 19.9441 240.886 16.8241C243.814 19.2721 245.686 23.1121 245.686 28.9681C245.686 35.9761 241.702 42.9361 233.11 46.4881C222.262 50.9041 210.934 48.0241 210.934 48.0241ZM241.75 30.8881L243.478 31.0321C243.574 30.4081 243.622 29.7841 243.622 29.2081H241.846C241.846 29.7841 241.798 30.3121 241.75 30.8881ZM231.046 42.6961L231.526 44.4721C237.19 42.8881 240.118 39.3841 241.558 36.7921C242.278 35.4961 242.806 34.1041 243.142 32.6641L241.462 32.4241C239.974 38.0881 234.79 41.6881 231.046 42.6961ZM259.661 48.1681L247.037 48.1201L250.349 19.8481H247.949V7.56009H251.741L252.077 4.68009H267.629L267.341 7.56009H284.813V19.8481H279.005C274.493 18.6481 270.077 18.5521 267.725 18.6001L267.869 17.3041L266.141 17.1121L264.509 31.2241L259.229 31.2721C255.917 31.8481 251.789 40.0081 257.069 46.0081C257.693 46.7761 258.557 47.4961 259.661 48.1681ZM259.037 9.43208H249.917V13.6081H251.693V11.2081H259.037V9.43208ZM262.301 9.43208H260.573V11.2081H262.301V9.43208ZM284.861 24.2641L283.469 33.6241L266.189 31.4161L267.533 20.3281C268.205 20.2801 278.573 19.8481 284.861 24.2641ZM281.405 44.9521H284.765V45.9601C277.661 49.7041 263.981 51.1921 258.413 45.0001C254.045 39.9601 257.357 33.6241 259.613 33.0001H267.821V37.8961H269.405V35.2081H284.765V36.7441L281.453 36.6961V38.3761L284.765 38.4241V40.0081L281.453 39.9601L281.405 41.6401L284.765 41.6881V43.2721H281.405V44.9521Z"/>
</mask>
<path d="M39.424 31.7521L42.4 32.4721L42.112 34.3921L38.848 33.6241L38.512 35.3521L41.824 36.0721L41.536 37.8961L38.176 37.1281L37.84 38.8561L41.248 39.6241L40.96 41.4481L37.456 40.6321L37.12 42.4081L40.672 43.1761L40.336 45.3361L32.272 43.2241L31.792 45.0961L36.208 46.2481C34.288 48.8881 30.928 50.2801 26.32 50.2801C18.736 50.2801 14.56 46.4881 14.56 39.5761C14.56 33.8641 17.44 29.9761 22.864 29.2081C23.776 29.1121 25.792 29.0161 27.328 29.4481L27.76 27.7681C26.128 27.3361 24.112 27.3841 23.008 27.4801V19.5121H19.984V7.22408H23.008V4.58408H39.424V7.22408H41.248V19.5601H36.112V21.4321H39.424V31.7521ZM12.64 39.5761C12.64 43.9441 14.08 47.2561 16.816 49.4161C15.088 49.8481 13.312 49.9921 11.776 49.4161C7.74399 47.8321 3.99999 44.9521 3.99999 33.6721C3.99999 22.4401 6.15999 4.92008 6.15999 4.92008H18.064V28.9681C14.56 31.0321 12.64 34.6321 12.64 39.5761ZM9.51999 8.37608H12.112V6.64808H7.98399L7.88799 7.41608C7.83999 7.65608 7.21599 13.0801 7.02399 15.1921L8.75199 15.3841C8.89599 13.7521 9.32799 9.96008 9.51999 8.37608ZM15.328 8.37608V6.64808H13.648V8.37608H15.328ZM23.44 12.9361V10.6321H30.4V9.00008H21.712V12.9361H23.44ZM31.984 9.04808V10.6801H33.616V9.04808H31.984ZM25.696 37.7521V40.0081H27.952V37.7521H25.696ZM61.8212 50.1361C45.6932 50.1361 45.4052 31.9921 45.4052 27.0961C45.4052 15.3361 51.3092 4.58408 51.3092 4.58408H65.9012V30.0241L60.0932 32.8081L62.2532 38.6161L64.0292 37.9441L62.4932 33.7201L77.6132 26.5681L78.5252 28.2001L75.5012 29.8321L76.3172 31.3201L79.3412 29.7361L80.1092 31.1761L77.0372 32.8081L77.8532 34.3441L80.8772 32.7121L81.6452 34.1521L78.5732 35.8321L79.4372 37.3201L82.4612 35.6881L82.7972 36.3121C82.7972 36.3121 77.9492 50.1361 61.8212 50.1361ZM48.7652 16.5841L50.6372 17.0161C51.4052 13.8001 53.3252 9.52808 53.9972 8.08808H58.0772V6.31208H52.7492C51.3092 9.28808 49.5332 13.4641 48.7652 16.5841ZM61.6292 6.31208H59.8052V8.08808H61.6292V6.31208ZM49.5332 39.8641L51.2132 39.2401C51.0212 38.7121 50.8772 38.1841 50.7812 37.6561L49.0532 37.9441C49.1972 38.6161 49.3412 39.2401 49.5332 39.8641ZM62.4932 48.4081V46.6321C57.5012 46.6321 53.6612 44.5201 51.7892 40.7761L50.1572 41.4961C52.3652 45.8641 56.8292 48.4081 62.4932 48.4081ZM114.558 43.7521C103.518 52.4881 90.4619 51.7201 84.5099 39.0961L85.9979 37.9441L88.4459 40.8241L89.7899 39.7681L87.3419 36.8401L88.6379 35.8321L91.0379 38.7601L92.3819 37.6561L90.0299 34.7761L91.3259 33.7681L93.6779 36.6481L95.0219 35.5441L92.6699 32.7121L94.2059 31.5601L98.5259 36.4081L100.014 35.1601L98.3339 33.1921L110.094 22.2961L108.798 20.9041L106.254 23.2561H85.6139V8.47208C85.6139 8.47208 102.846 5.25608 112.494 8.13608L111.678 3.00008H116.478L118.254 14.3281H113.502L112.926 11.0161L111.438 11.3041L112.206 15.8641H121.71C126.078 24.1201 123.918 36.3121 114.558 43.7521ZM122.766 3.00008L124.542 14.3281H119.838L118.062 3.00008H122.766ZM104.094 8.80808H102.366V10.5841H104.094V8.80808ZM88.2539 10.0561L87.4859 10.1521V14.3761H89.2619V11.6881C91.1819 11.4481 96.4139 10.7761 100.686 10.6321L100.59 8.90409C95.2619 9.09609 88.3019 10.0561 88.2539 10.0561ZM118.542 32.4241L120.222 32.9521L120.798 31.3201L119.07 30.8401C118.926 31.3681 118.734 31.8961 118.542 32.4241ZM108.222 43.0801L108.99 44.7121C112.686 42.9361 116.958 39.3361 119.406 34.7761L117.822 33.9601C115.566 38.1841 111.582 41.4961 108.222 43.0801ZM152.987 50.0881L151.739 48.6481L154.571 46.2961L153.275 44.8081L150.491 47.2081L149.243 45.7201L152.075 43.3201L150.827 41.8801L147.995 44.2321L146.795 42.7441L149.579 40.3921L148.331 38.9041L145.499 41.2561L143.963 39.4321L149.243 34.8721L148.043 33.4801L141.323 39.2881L147.563 46.7281C144.587 48.5521 140.171 50.3281 135.995 49.6081C129.899 48.5041 125.819 43.0321 125.627 31.9921C125.483 24.6481 126.539 18.2641 130.139 13.6561L129.227 6.45609H144.587L142.427 14.3761L144.299 14.8561L147.035 4.72808H161.291L158.027 16.3441L159.851 16.8721L160.763 13.6081C163.835 18.4561 164.747 24.5521 164.747 30.6961C164.747 39.4321 159.179 46.6321 152.987 50.0881ZM137.291 8.13608H131.483L132.059 12.9361L134.027 12.6961L133.691 10.0561H137.291V8.13608ZM140.939 8.13608H139.019V10.0561H140.939V8.13608ZM127.595 27.2401L129.515 27.2881C129.563 25.1281 130.427 19.4161 133.163 16.4881L131.723 15.2401C128.603 18.6481 127.691 24.7921 127.595 27.2401ZM145.595 20.7121H143.291V22.9201H145.595V20.7121ZM161.003 28.6321L162.827 28.5361C162.779 27.8161 162.683 27.1921 162.635 26.7601L160.859 27.0001C160.907 27.5281 161.003 28.0561 161.003 28.6321ZM135.179 29.0641H133.163V35.3521H135.179V29.0641ZM158.555 38.9041L159.995 39.9601C162.347 36.8881 162.875 33.2401 162.875 30.4561L161.099 30.5041C161.051 33.2401 160.523 36.2641 158.555 38.9041ZM197.752 10.0081C201.448 12.1681 205 16.5841 205 26.1361C205 35.6881 202.6 42.1201 196.552 44.4721C195.976 48.3121 195.4 49.5121 195.4 49.5121H179.8C179.8 49.5121 180.04 48.1681 180.328 43.8481C178.312 43.3201 176.728 42.6961 174.952 41.7361L175.336 40.3921L178.84 41.3521L179.272 39.6721L175.816 38.7121L176.248 37.1281L179.704 38.0881L180.184 36.4081L176.728 35.4481L177.16 33.9121L180.616 34.8241L181.048 33.1441L177.64 32.2321L178.024 30.8881L176.152 30.3601L172.744 42.6001C173.224 42.8881 173.848 43.4161 176.584 44.6161C176.392 45.4321 176.2 46.2001 175.96 46.8721H166.936V7.51208H179.608V9.57609C178.792 10.1041 177.016 11.2561 176.2 11.9761L177.304 13.2241C178.216 12.4561 180.376 11.1121 181.336 10.4881V4.63208H197.512C197.608 6.50408 197.704 8.28008 197.752 10.0081ZM170.44 18.8401V10.9681H172.744V9.24008H168.712V18.8401H170.44ZM174.28 9.24008V11.0161H176.008V9.24008H174.28ZM201.352 17.9281L199.72 18.6481C199.96 19.1281 200.152 19.6561 200.296 20.1841L201.976 19.7041C201.784 19.0801 201.592 18.4561 201.352 17.9281ZM200.056 33.8641L201.784 34.2961C202.84 29.5441 203.08 25.0321 202.36 21.3841L200.68 21.8161C201.304 25.2241 201.16 29.5921 200.056 33.8641ZM192.424 29.0161L194.008 30.1201C195.688 27.8161 195.688 24.6961 194.008 22.2961L192.424 23.4001C193.624 25.1281 193.624 27.3841 192.424 29.0161ZM178.216 24.2161V27.0961H180.232V24.2161H178.216ZM226.678 19.7521C214.486 19.7521 212.662 14.5681 212.662 11.4961C212.662 8.42409 214.486 3.04808 226.678 3.04808C238.87 3.04808 240.694 8.42409 240.694 11.4961C240.694 14.5681 238.87 19.7521 226.678 19.7521ZM215.35 8.95208L216.838 9.86408C217.99 8.04008 221.782 6.55208 225.142 6.60008V4.87208C221.686 4.82408 217.078 6.31208 215.35 8.95208ZM228.598 4.87208H226.774V6.60008H228.598V4.87208ZM210.934 48.0241L210.838 46.9201L214.534 46.1521L214.342 44.3761L210.646 45.1921L210.454 43.5601L214.198 42.7921L214.054 41.0161L210.262 41.7841L210.118 40.2001L213.862 39.3841L213.718 37.6561L209.926 38.4241L209.734 36.6481L233.83 28.5841L233.206 26.7121L221.206 30.7441H208.534V15.7201C208.726 15.7681 209.782 15.4801 211.462 15.0961C213.286 19.3201 218.614 21.6241 226.678 21.6241C233.542 21.6241 238.438 19.9441 240.886 16.8241C243.814 19.2721 245.686 23.1121 245.686 28.9681C245.686 35.9761 241.702 42.9361 233.11 46.4881C222.262 50.9041 210.934 48.0241 210.934 48.0241ZM241.75 30.8881L243.478 31.0321C243.574 30.4081 243.622 29.7841 243.622 29.2081H241.846C241.846 29.7841 241.798 30.3121 241.75 30.8881ZM231.046 42.6961L231.526 44.4721C237.19 42.8881 240.118 39.3841 241.558 36.7921C242.278 35.4961 242.806 34.1041 243.142 32.6641L241.462 32.4241C239.974 38.0881 234.79 41.6881 231.046 42.6961ZM259.661 48.1681L247.037 48.1201L250.349 19.8481H247.949V7.56009H251.741L252.077 4.68009H267.629L267.341 7.56009H284.813V19.8481H279.005C274.493 18.6481 270.077 18.5521 267.725 18.6001L267.869 17.3041L266.141 17.1121L264.509 31.2241L259.229 31.2721C255.917 31.8481 251.789 40.0081 257.069 46.0081C257.693 46.7761 258.557 47.4961 259.661 48.1681ZM259.037 9.43208H249.917V13.6081H251.693V11.2081H259.037V9.43208ZM262.301 9.43208H260.573V11.2081H262.301V9.43208ZM284.861 24.2641L283.469 33.6241L266.189 31.4161L267.533 20.3281C268.205 20.2801 278.573 19.8481 284.861 24.2641ZM281.405 44.9521H284.765V45.9601C277.661 49.7041 263.981 51.1921 258.413 45.0001C254.045 39.9601 257.357 33.6241 259.613 33.0001H267.821V37.8961H269.405V35.2081H284.765V36.7441L281.453 36.6961V38.3761L284.765 38.4241V40.0081L281.453 39.9601L281.405 41.6401L284.765 41.6881V43.2721H281.405V44.9521Z" fill="white"/>
<path d="M39.424 31.7521H36.424V34.1128L38.7185 34.668L39.424 31.7521ZM42.4 32.4721L45.3668 32.9171L45.7741 30.2018L43.1054 29.5562L42.4 32.4721ZM42.112 34.3921L41.4249 37.3123L44.5956 38.0584L45.0788 34.8371L42.112 34.3921ZM38.848 33.6241L39.5351 30.7038L36.4986 29.9893L35.9031 33.0515L38.848 33.6241ZM38.512 35.3521L35.5671 34.7795L35.007 37.6602L37.8747 38.2836L38.512 35.3521ZM41.824 36.0721L44.7873 36.54L45.229 33.7422L42.4613 33.1406L41.824 36.0721ZM41.536 37.8961L40.8675 40.8207L43.9984 41.5363L44.4993 38.364L41.536 37.8961ZM38.176 37.1281L38.8445 34.2035L35.8228 33.5128L35.2311 36.5555L38.176 37.1281ZM37.84 38.8561L34.8951 38.2835L34.3392 41.1424L37.1805 41.7827L37.84 38.8561ZM41.248 39.6241L44.2113 40.092L44.6497 37.3154L41.9075 36.6975L41.248 39.6241ZM40.96 41.4481L40.2796 44.3699L43.4203 45.1013L43.9233 41.916L40.96 41.4481ZM37.456 40.6321L38.1364 37.7103L35.0898 37.0008L34.5083 40.0744L37.456 40.6321ZM37.12 42.4081L34.1723 41.8504L33.6289 44.7226L36.486 45.3403L37.12 42.4081ZM40.672 43.1761L43.6363 43.6372L44.0712 40.8417L41.306 40.2438L40.672 43.1761ZM40.336 45.3361L39.5759 48.2382L42.7897 49.0799L43.3003 45.7972L40.336 45.3361ZM32.272 43.2241L33.0321 40.322L30.115 39.558L29.366 42.479L32.272 43.2241ZM31.792 45.0961L28.886 44.351L28.144 47.2448L31.0347 47.9989L31.792 45.0961ZM36.208 46.2481L38.6342 48.0126L41.2212 44.4555L36.9653 43.3452L36.208 46.2481ZM22.864 29.2081L22.5499 26.2246L22.4966 26.2302L22.4434 26.2377L22.864 29.2081ZM27.328 29.4481L26.5158 32.336L29.4694 33.1667L30.2335 30.1952L27.328 29.4481ZM27.76 27.7681L30.6655 28.5152L31.4073 25.6302L28.5277 24.868L27.76 27.7681ZM23.008 27.4801H20.008V30.7523L23.2679 30.4688L23.008 27.4801ZM23.008 19.5121H26.008V16.5121H23.008V19.5121ZM19.984 19.5121H16.984V22.5121H19.984V19.5121ZM19.984 7.22408V4.22408H16.984V7.22408H19.984ZM23.008 7.22408V10.2241H26.008V7.22408H23.008ZM23.008 4.58408V1.58408H20.008V4.58408H23.008ZM39.424 4.58408H42.424V1.58408H39.424V4.58408ZM39.424 7.22408H36.424V10.2241H39.424V7.22408ZM41.248 7.22408H44.248V4.22408H41.248V7.22408ZM41.248 19.5601V22.5601H44.248V19.5601H41.248ZM36.112 19.5601V16.5601H33.112V19.5601H36.112ZM36.112 21.4321H33.112V24.4321H36.112V21.4321ZM39.424 21.4321H42.424V18.4321H39.424V21.4321ZM16.816 49.4161L17.5436 52.3265L23.468 50.8454L18.6749 47.0614L16.816 49.4161ZM11.776 49.4161L10.679 52.2083L10.7008 52.2169L10.7226 52.2251L11.776 49.4161ZM6.15999 4.92009V1.92009H3.50714L3.18253 4.553L6.15999 4.92009ZM18.064 4.92009H21.064V1.92009H18.064V4.92009ZM18.064 28.9681L19.5866 31.553L21.064 30.6827V28.9681H18.064ZM9.51999 8.37608V5.37608H6.86167L6.54179 8.01509L9.51999 8.37608ZM12.112 8.37608V11.3761H15.112V8.37608H12.112ZM12.112 6.64808H15.112V3.64808H12.112V6.64808ZM7.98399 6.64808V3.64808H5.33564L5.00716 6.27598L7.98399 6.64808ZM7.88799 7.41608L10.8297 8.00443L10.8512 7.89695L10.8648 7.78819L7.88799 7.41608ZM7.02399 15.1921L4.03631 14.9205L3.77008 17.849L6.69269 18.1737L7.02399 15.1921ZM8.75199 15.3841L8.42069 18.3657L11.4707 18.7046L11.7404 15.6478L8.75199 15.3841ZM15.328 8.37608V11.3761H18.328V8.37608H15.328ZM15.328 6.64808H18.328V3.64808H15.328V6.64808ZM13.648 6.64808V3.64808H10.648V6.64808H13.648ZM13.648 8.37608H10.648V11.3761H13.648V8.37608ZM23.44 12.9361V15.9361H26.44V12.9361H23.44ZM23.44 10.6321V7.63208H20.44V10.6321H23.44ZM30.4 10.6321V13.6321H33.4V10.6321H30.4ZM30.4 9.00008H33.4V6.00008H30.4V9.00008ZM21.712 9.00008V6.00008H18.712V9.00008H21.712ZM21.712 12.9361H18.712V15.9361H21.712V12.9361ZM31.984 9.04808V6.04808H28.984V9.04808H31.984ZM31.984 10.6801H28.984V13.6801H31.984V10.6801ZM33.616 10.6801V13.6801H36.616V10.6801H33.616ZM33.616 9.04808H36.616V6.04808H33.616V9.04808ZM25.696 37.7521V34.7521H22.696V37.7521H25.696ZM25.696 40.0081H22.696V43.0081H25.696V40.0081ZM27.952 40.0081V43.0081H30.952V40.0081H27.952ZM27.952 37.7521H30.952V34.7521H27.952V37.7521ZM39.424 31.7521L38.7185 34.668L41.6945 35.388L42.4 32.4721L43.1054 29.5562L40.1294 28.8362L39.424 31.7521ZM42.4 32.4721L39.4332 32.0271L39.1452 33.9471L42.112 34.3921L45.0788 34.8371L45.3668 32.9171L42.4 32.4721ZM42.112 34.3921L42.7991 31.4718L39.5351 30.7038L38.848 33.6241L38.1609 36.5443L41.4249 37.3123L42.112 34.3921ZM38.848 33.6241L35.9031 33.0515L35.5671 34.7795L38.512 35.3521L41.4568 35.9247L41.7928 34.1967L38.848 33.6241ZM38.512 35.3521L37.8747 38.2836L41.1867 39.0036L41.824 36.0721L42.4613 33.1406L39.1493 32.4206L38.512 35.3521ZM41.824 36.0721L38.8607 35.6042L38.5727 37.4282L41.536 37.8961L44.4993 38.364L44.7873 36.54L41.824 36.0721ZM41.536 37.8961L42.2045 34.9715L38.8445 34.2035L38.176 37.1281L37.5075 40.0527L40.8675 40.8207L41.536 37.8961ZM38.176 37.1281L35.2311 36.5555L34.8951 38.2835L37.84 38.8561L40.7848 39.4287L41.1208 37.7007L38.176 37.1281ZM37.84 38.8561L37.1805 41.7827L40.5885 42.5507L41.248 39.6241L41.9075 36.6975L38.4995 35.9295L37.84 38.8561ZM41.248 39.6241L38.2847 39.1562L37.9967 40.9802L40.96 41.4481L43.9233 41.916L44.2113 40.092L41.248 39.6241ZM40.96 41.4481L41.6404 38.5263L38.1364 37.7103L37.456 40.6321L36.7756 43.5539L40.2796 44.3699L40.96 41.4481ZM37.456 40.6321L34.5083 40.0744L34.1723 41.8504L37.12 42.4081L40.0677 42.9658L40.4037 41.1898L37.456 40.6321ZM37.12 42.4081L36.486 45.3403L40.038 46.1083L40.672 43.1761L41.306 40.2438L37.754 39.4758L37.12 42.4081ZM40.672 43.1761L37.7076 42.715L37.3716 44.875L40.336 45.3361L43.3003 45.7972L43.6363 43.6372L40.672 43.1761ZM40.336 45.3361L41.0961 42.434L33.0321 40.322L32.272 43.2241L31.5119 46.1262L39.5759 48.2382L40.336 45.3361ZM32.272 43.2241L29.366 42.479L28.886 44.351L31.792 45.0961L34.698 45.8412L35.178 43.9692L32.272 43.2241ZM31.792 45.0961L31.0347 47.9989L35.4507 49.1509L36.208 46.2481L36.9653 43.3452L32.5493 42.1932L31.792 45.0961ZM36.208 46.2481L33.7818 44.4836C32.626 46.0727 30.3675 47.2801 26.32 47.2801V50.2801V53.2801C31.4884 53.2801 35.95 51.7034 38.6342 48.0126L36.208 46.2481ZM26.32 50.2801V47.2801C22.9912 47.2801 20.8755 46.4478 19.6147 45.3009C18.3989 44.195 17.56 42.4159 17.56 39.5761H14.56H11.56C11.56 43.6483 12.809 47.2212 15.5773 49.7393C18.3004 52.2164 22.0647 53.2801 26.32 53.2801V50.2801ZM14.56 39.5761H17.56C17.56 37.2101 18.1543 35.5166 19.0383 34.3898C19.894 33.299 21.2296 32.4694 23.2846 32.1785L22.864 29.2081L22.4434 26.2377C19.0744 26.7147 16.2579 28.2131 14.3177 30.6864C12.4056 33.1236 11.56 36.2301 11.56 39.5761H14.56ZM22.864 29.2081L23.178 32.1916C23.5274 32.1548 24.1309 32.1146 24.7953 32.1293C25.4829 32.1446 26.09 32.2163 26.5158 32.336L27.328 29.4481L28.1402 26.5601C26.0335 25.9676 23.5462 26.1197 22.5499 26.2246L22.864 29.2081ZM27.328 29.4481L30.2335 30.1952L30.6655 28.5152L27.76 27.7681L24.8545 27.021L24.4225 28.701L27.328 29.4481ZM27.76 27.7681L28.5277 24.868C26.3912 24.3024 23.9631 24.3857 22.7481 24.4914L23.008 27.4801L23.2679 30.4688C24.2609 30.3825 25.8648 30.3697 26.9923 30.6682L27.76 27.7681ZM23.008 27.4801H26.008V19.5121H23.008H20.008V27.4801H23.008ZM23.008 19.5121V16.5121H19.984V19.5121V22.5121H23.008V19.5121ZM19.984 19.5121H22.984V7.22408H19.984H16.984V19.5121H19.984ZM19.984 7.22408V10.2241H23.008V7.22408V4.22408H19.984V7.22408ZM23.008 7.22408H26.008V4.58408H23.008H20.008V7.22408H23.008ZM23.008 4.58408V7.58408H39.424V4.58408V1.58408H23.008V4.58408ZM39.424 4.58408H36.424V7.22408H39.424H42.424V4.58408H39.424ZM39.424 7.22408V10.2241H41.248V7.22408V4.22408H39.424V7.22408ZM41.248 7.22408H38.248V19.5601H41.248H44.248V7.22408H41.248ZM41.248 19.5601V16.5601H36.112V19.5601V22.5601H41.248V19.5601ZM36.112 19.5601H33.112V21.4321H36.112H39.112V19.5601H36.112ZM36.112 21.4321V24.4321H39.424V21.4321V18.4321H36.112V21.4321ZM39.424 21.4321H36.424V31.7521H39.424H42.424V21.4321H39.424ZM12.64 39.5761H9.63999C9.63999 44.6399 11.3423 48.917 14.9571 51.7707L16.816 49.4161L18.6749 47.0614C16.8177 45.5952 15.64 43.2482 15.64 39.5761H12.64ZM16.816 49.4161L16.0884 46.5057C14.5941 46.8792 13.5283 46.8692 12.8294 46.6071L11.776 49.4161L10.7226 52.2251C13.0957 53.115 15.5819 52.8169 17.5436 52.3265L16.816 49.4161ZM11.776 49.4161L12.8729 46.6238C11.1765 45.9574 9.89498 45.1663 8.92735 43.6019C7.89854 41.9387 6.99999 39.0319 6.99999 33.6721H3.99999H0.999989C0.999989 39.5922 1.97344 43.7655 3.82463 46.7582C5.737 49.8499 8.34343 51.2908 10.679 52.2083L11.776 49.4161ZM3.99999 33.6721H6.99999C6.99999 28.2028 7.52857 21.1302 8.067 15.363C8.33498 12.4926 8.60305 9.96977 8.80405 8.16519C8.90452 7.26318 8.98816 6.54134 9.04655 6.04607C9.07574 5.79845 9.09861 5.60753 9.11411 5.4791C9.12186 5.41489 9.12777 5.3663 9.1317 5.33407C9.13367 5.31795 9.13514 5.30593 9.13611 5.29808C9.13659 5.29416 9.13694 5.29128 9.13717 5.28946C9.13728 5.28854 9.13736 5.2879 9.1374 5.28751C9.13743 5.28732 9.13744 5.28724 9.13745 5.28714C9.13745 5.28712 9.13745 5.28717 6.15999 4.92009C3.18253 4.553 3.18251 4.55318 3.18248 4.55343C3.18246 4.5536 3.18242 4.55391 3.18238 4.55426C3.18229 4.55494 3.18218 4.55589 3.18203 4.55711C3.18173 4.55954 3.1813 4.56303 3.18074 4.56757C3.17963 4.57665 3.178 4.58993 3.17588 4.6073C3.17164 4.64206 3.16542 4.69322 3.15735 4.76007C3.14121 4.89376 3.11768 5.09021 3.08781 5.3436C3.02807 5.85033 2.94296 6.58499 2.84093 7.50098C2.63693 9.3324 2.365 11.8916 2.09298 14.8052C1.55141 20.606 0.999989 27.9093 0.999989 33.6721H3.99999ZM6.15999 4.92009V7.92009H18.064V4.92009V1.92009H6.15999V4.92009ZM18.064 4.92009H15.064V28.9681H18.064H21.064V4.92009H18.064ZM18.064 28.9681L16.5414 26.3832C11.9608 29.0814 9.63999 33.771 9.63999 39.5761H12.64H15.64C15.64 35.4932 17.1592 32.9828 19.5866 31.553L18.064 28.9681ZM9.51999 8.37608V11.3761H12.112V8.37608V5.37608H9.51999V8.37608ZM12.112 8.37608H15.112V6.64808H12.112H9.11199V8.37608H12.112ZM12.112 6.64808V3.64808H7.98399V6.64808V9.64808H12.112V6.64808ZM7.98399 6.64808L5.00716 6.27598L4.91116 7.04398L7.88799 7.41608L10.8648 7.78819L10.9608 7.02019L7.98399 6.64808ZM7.88799 7.41608L4.94625 6.82774C4.90359 7.04102 4.83637 7.61211 4.78063 8.08188C4.71153 8.66428 4.62235 9.43677 4.52887 10.266C4.34303 11.9146 4.1356 13.8283 4.03631 14.9205L7.02399 15.1921L10.0117 15.4637C10.1044 14.4439 10.3049 12.5896 10.4911 10.9381C10.5836 10.1174 10.6714 9.35688 10.7388 8.78879C10.8196 8.10806 10.8484 7.91115 10.8297 8.00443L7.88799 7.41608ZM7.02399 15.1921L6.69269 18.1737L8.42069 18.3657L8.75199 15.3841L9.08328 12.4024L7.35528 12.2104L7.02399 15.1921ZM8.75199 15.3841L11.7404 15.6478C11.8797 14.0686 12.3065 10.3188 12.4982 8.73708L9.51999 8.37608L6.54179 8.01509C6.34951 9.60139 5.91226 13.4356 5.7636 15.1204L8.75199 15.3841ZM15.328 8.37608H18.328V6.64808H15.328H12.328V8.37608H15.328ZM15.328 6.64808V3.64808H13.648V6.64808V9.64808H15.328V6.64808ZM13.648 6.64808H10.648V8.37608H13.648H16.648V6.64808H13.648ZM13.648 8.37608V11.3761H15.328V8.37608V5.37608H13.648V8.37608ZM23.44 12.9361H26.44V10.6321H23.44H20.44V12.9361H23.44ZM23.44 10.6321V13.6321H30.4V10.6321V7.63208H23.44V10.6321ZM30.4 10.6321H33.4V9.00008H30.4H27.4V10.6321H30.4ZM30.4 9.00008V6.00008H21.712V9.00008V12.0001H30.4V9.00008ZM21.712 9.00008H18.712V12.9361H21.712H24.712V9.00008H21.712ZM21.712 12.9361V15.9361H23.44V12.9361V9.93608H21.712V12.9361ZM31.984 9.04808H28.984V10.6801H31.984H34.984V9.04808H31.984ZM31.984 10.6801V13.6801H33.616V10.6801V7.68008H31.984V10.6801ZM33.616 10.6801H36.616V9.04808H33.616H30.616V10.6801H33.616ZM33.616 9.04808V6.04808H31.984V9.04808V12.0481H33.616V9.04808ZM25.696 37.7521H22.696V40.0081H25.696H28.696V37.7521H25.696ZM25.696 40.0081V43.0081H27.952V40.0081V37.0081H25.696V40.0081ZM27.952 40.0081H30.952V37.7521H27.952H24.952V40.0081H27.952ZM27.952 37.7521V34.7521H25.696V37.7521V40.7521H27.952V37.7521ZM51.3092 4.58408V1.58408H49.534L48.6796 3.14013L51.3092 4.58408ZM65.9012 4.58408H68.9012V1.58408H65.9012V4.58408ZM65.9012 30.0241L67.198 32.7294L68.9012 31.9129V30.0241H65.9012ZM60.0932 32.8081L58.7965 30.1028L56.3267 31.2867L57.2814 33.8538L60.0932 32.8081ZM62.2532 38.6161L59.4414 39.6618L60.4931 42.4897L63.3149 41.4219L62.2532 38.6161ZM64.0292 37.9441L65.0909 40.7499L67.8606 39.7019L66.8486 36.9189L64.0292 37.9441ZM62.4932 33.7201L61.2105 31.0082L58.7399 32.1768L59.6739 34.7453L62.4932 33.7201ZM77.6132 26.5681L80.2321 25.1046L78.8646 22.6575L76.3305 23.8562L77.6132 26.5681ZM78.5252 28.2001L79.95 30.8402L82.6292 29.3942L81.1441 26.7366L78.5252 28.2001ZM75.5012 29.8321L74.0764 27.192L71.4186 28.6264L72.8708 31.2746L75.5012 29.8321ZM76.3172 31.3201L73.6868 32.7626L75.102 35.3433L77.7093 33.9776L76.3172 31.3201ZM79.3412 29.7361L81.9883 28.3243L80.587 25.6969L77.9492 27.0786L79.3412 29.7361ZM80.1092 31.1761L81.5167 33.8254L84.1703 32.4157L82.7563 29.7643L80.1092 31.1761ZM77.0372 32.8081L75.6298 30.1587L72.9804 31.5662L74.3879 34.2155L77.0372 32.8081ZM77.8532 34.3441L75.2039 35.7515L76.6206 38.4183L79.278 36.9842L77.8532 34.3441ZM80.8772 32.7121L83.5243 31.3003L82.1056 28.6402L79.4524 30.072L80.8772 32.7121ZM81.6452 34.1521L83.0847 36.7842L85.6893 35.3598L84.2923 32.7403L81.6452 34.1521ZM78.5732 35.8321L77.1338 33.2L74.4334 34.6768L75.9789 37.3385L78.5732 35.8321ZM79.4372 37.3201L76.8429 38.8265L78.303 41.3412L80.862 39.9602L79.4372 37.3201ZM82.4612 35.6881L85.1026 34.2658L83.679 31.6219L81.0364 33.048L82.4612 35.6881ZM82.7972 36.3121L85.6282 37.3049L86.0664 36.0555L85.4387 34.8898L82.7972 36.3121ZM48.7652 16.5841L45.8522 15.867L45.1246 18.8228L48.0907 19.5073L48.7652 16.5841ZM50.6372 17.0161L49.9627 19.9393L52.8637 20.6087L53.5552 17.7129L50.6372 17.0161ZM53.9972 8.08809V5.08809H52.0867L51.2787 6.81943L53.9972 8.08809ZM58.0772 8.08809V11.0881H61.0772V8.08809H58.0772ZM58.0772 6.31208H61.0772V3.31208H58.0772V6.31208ZM52.7492 6.31208V3.31208H50.8681L50.0488 5.0054L52.7492 6.31208ZM61.6292 6.31208H64.6292V3.31208H61.6292V6.31208ZM59.8052 6.31208V3.31208H56.8052V6.31208H59.8052ZM59.8052 8.08809H56.8052V11.0881H59.8052V8.08809ZM61.6292 8.08809V11.0881H64.6292V8.08809H61.6292ZM49.5332 39.8641L46.6659 40.7463L47.6001 43.7824L50.5778 42.6764L49.5332 39.8641ZM51.2132 39.2401L52.2578 42.0524L55.0508 41.0149L54.0326 38.2149L51.2132 39.2401ZM50.7812 37.6561L53.7328 37.1194L53.204 34.2109L50.288 34.6969L50.7812 37.6561ZM49.0532 37.9441L48.56 34.9849L45.4617 35.5013L46.1198 38.5727L49.0532 37.9441ZM62.4932 48.4081V51.4081H65.4932V48.4081H62.4932ZM62.4932 46.6321H65.4932V43.6321H62.4932V46.6321ZM51.7892 40.7761L54.4725 39.4344L53.194 36.8774L50.5783 38.0313L51.7892 40.7761ZM50.1572 41.4961L48.9463 38.7513L46.0534 40.0276L47.4799 42.8495L50.1572 41.4961ZM61.8212 50.1361V47.1361C58.3921 47.1361 56.0113 46.1866 54.2892 44.8528C52.5281 43.4888 51.2533 41.5633 50.3453 39.3245C48.4966 34.7665 48.4052 29.5297 48.4052 27.0961H45.4052H42.4052C42.4052 29.5585 42.4579 35.8416 44.7852 41.5797C45.9652 44.4888 47.7863 47.4054 50.6152 49.5964C53.4831 51.8176 57.1864 53.1361 61.8212 53.1361V50.1361ZM45.4052 27.0961H48.4052C48.4052 21.6839 49.7713 16.4145 51.1844 12.4337C51.8858 10.4577 52.5864 8.83379 53.1076 7.71152C53.3679 7.15111 53.5825 6.71785 53.7288 6.43058C53.8019 6.287 53.8579 6.18007 53.8939 6.11216C53.9119 6.0782 53.9249 6.05401 53.9325 6.03989C53.9363 6.03283 53.9388 6.02829 53.9398 6.0263C53.9404 6.0253 53.9406 6.02495 53.9404 6.02524C53.9403 6.02538 53.9402 6.02568 53.9399 6.02615C53.9398 6.02639 53.9395 6.02686 53.9395 6.02697C53.9392 6.02748 53.9389 6.02804 51.3092 4.58408C48.6796 3.14013 48.6793 3.14077 48.6789 3.14144C48.6787 3.14172 48.6783 3.14244 48.678 3.143C48.6774 3.14412 48.6767 3.1454 48.6759 3.14686C48.6743 3.14976 48.6724 3.15332 48.6701 3.15754C48.6655 3.16598 48.6595 3.17704 48.6521 3.19068C48.6374 3.21796 48.6172 3.25559 48.592 3.30325C48.5415 3.39858 48.4706 3.53413 48.3823 3.70752C48.2057 4.0542 47.9591 4.55281 47.6659 5.18415C47.0801 6.44538 46.3047 8.24442 45.5301 10.4265C43.9912 14.7617 42.4052 20.7483 42.4052 27.0961H45.4052ZM51.3092 4.58408V7.58408H65.9012V4.58408V1.58408H51.3092V4.58408ZM65.9012 4.58408H62.9012V30.0241H65.9012H68.9012V4.58408H65.9012ZM65.9012 30.0241L64.6045 27.3188L58.7965 30.1028L60.0932 32.8081L61.39 35.5134L67.198 32.7294L65.9012 30.0241ZM60.0932 32.8081L57.2814 33.8538L59.4414 39.6618L62.2532 38.6161L65.0651 37.5704L62.9051 31.7624L60.0932 32.8081ZM62.2532 38.6161L63.3149 41.4219L65.0909 40.7499L64.0292 37.9441L62.9676 35.1382L61.1916 35.8102L62.2532 38.6161ZM64.0292 37.9441L66.8486 36.9189L65.3126 32.6949L62.4932 33.7201L59.6739 34.7453L61.2099 38.9693L64.0292 37.9441ZM62.4932 33.7201L63.776 36.432L78.896 29.28L77.6132 26.5681L76.3305 23.8562L61.2105 31.0082L62.4932 33.7201ZM77.6132 26.5681L74.9944 28.0315L75.9064 29.6635L78.5252 28.2001L81.1441 26.7366L80.2321 25.1046L77.6132 26.5681ZM78.5252 28.2001L77.1004 25.56L74.0764 27.192L75.5012 29.8321L76.926 32.4722L79.95 30.8402L78.5252 28.2001ZM75.5012 29.8321L72.8708 31.2746L73.6868 32.7626L76.3172 31.3201L78.9477 29.8776L78.1317 28.3896L75.5012 29.8321ZM76.3172 31.3201L77.7093 33.9776L80.7333 32.3936L79.3412 29.7361L77.9492 27.0786L74.9252 28.6626L76.3172 31.3201ZM79.3412 29.7361L76.6942 31.1479L77.4622 32.5878L80.1092 31.1761L82.7563 29.7643L81.9883 28.3243L79.3412 29.7361ZM80.1092 31.1761L78.7018 28.5267L75.6298 30.1587L77.0372 32.8081L78.4447 35.4574L81.5167 33.8254L80.1092 31.1761ZM77.0372 32.8081L74.3879 34.2155L75.2039 35.7515L77.8532 34.3441L80.5026 32.9366L79.6866 31.4006L77.0372 32.8081ZM77.8532 34.3441L79.278 36.9842L82.302 35.3521L80.8772 32.7121L79.4524 30.072L76.4284 31.704L77.8532 34.3441ZM80.8772 32.7121L78.2302 34.1238L78.9982 35.5638L81.6452 34.1521L84.2923 32.7403L83.5243 31.3003L80.8772 32.7121ZM81.6452 34.1521L80.2058 31.52L77.1338 33.2L78.5732 35.8321L80.0127 38.4642L83.0847 36.7842L81.6452 34.1521ZM78.5732 35.8321L75.9789 37.3385L76.8429 38.8265L79.4372 37.3201L82.0316 35.8137L81.1676 34.3257L78.5732 35.8321ZM79.4372 37.3201L80.862 39.9602L83.886 38.3282L82.4612 35.6881L81.0364 33.048L78.0124 34.68L79.4372 37.3201ZM82.4612 35.6881L79.8198 37.1104L80.1558 37.7344L82.7972 36.3121L85.4387 34.8898L85.1026 34.2658L82.4612 35.6881ZM82.7972 36.3121C79.9663 35.3193 79.9668 35.3179 79.9672 35.3166C79.9674 35.3162 79.9678 35.3149 79.9681 35.3142C79.9686 35.3126 79.9691 35.3113 79.9695 35.3102C79.9702 35.308 79.9707 35.3067 79.971 35.3061C79.9714 35.3049 79.9707 35.3069 79.9688 35.3119C79.9651 35.3221 79.9567 35.3445 79.9435 35.3783C79.9171 35.4461 79.8716 35.5593 79.8055 35.7117C79.673 36.0168 79.4595 36.4753 79.1537 37.0362C78.5396 38.1628 77.57 39.6719 76.1648 41.1763C73.3973 44.1394 68.9095 47.1361 61.8212 47.1361V50.1361V53.1361C70.861 53.1361 76.8612 49.2208 80.5497 45.2719C82.3725 43.3203 83.6229 41.3734 84.4218 39.908C84.8225 39.1729 85.1137 38.5514 85.3094 38.1005C85.4074 37.8748 85.4817 37.6911 85.5342 37.5564C85.5605 37.489 85.5813 37.4337 85.5969 37.3916C85.6047 37.3705 85.6112 37.3526 85.6164 37.3382C85.619 37.3309 85.6213 37.3245 85.6232 37.319C85.6242 37.3162 85.6251 37.3136 85.626 37.3113C85.6264 37.3101 85.6269 37.3085 85.6271 37.3079C85.6277 37.3064 85.6282 37.3049 82.7972 36.3121ZM48.7652 16.5841L48.0907 19.5073L49.9627 19.9393L50.6372 17.0161L51.3118 14.0929L49.4398 13.6609L48.7652 16.5841ZM50.6372 17.0161L53.5552 17.7129C54.2435 14.8306 56.036 10.8135 56.7158 9.35674L53.9972 8.08809L51.2787 6.81943C50.6145 8.24265 48.567 12.7696 47.7193 16.3193L50.6372 17.0161ZM53.9972 8.08809V11.0881H58.0772V8.08809V5.08809H53.9972V8.08809ZM58.0772 8.08809H61.0772V6.31208H58.0772H55.0772V8.08809H58.0772ZM58.0772 6.31208V3.31208H52.7492V6.31208V9.31208H58.0772V6.31208ZM52.7492 6.31208L50.0488 5.0054C48.5852 8.03009 46.6972 12.4341 45.8522 15.867L48.7652 16.5841L51.6783 17.3011C52.3692 14.4941 54.0333 10.5461 55.4497 7.61877L52.7492 6.31208ZM61.6292 6.31208V3.31208H59.8052V6.31208V9.31208H61.6292V6.31208ZM59.8052 6.31208H56.8052V8.08809H59.8052H62.8052V6.31208H59.8052ZM59.8052 8.08809V11.0881H61.6292V8.08809V5.08809H59.8052V8.08809ZM61.6292 8.08809H64.6292V6.31208H61.6292H58.6292V8.08809H61.6292ZM49.5332 39.8641L50.5778 42.6764L52.2578 42.0524L51.2132 39.2401L50.1687 36.4278L48.4887 37.0518L49.5332 39.8641ZM51.2132 39.2401L54.0326 38.2149C53.8957 37.8383 53.7972 37.4736 53.7328 37.1194L50.7812 37.6561L47.8296 38.1927C47.9572 38.8946 48.1468 39.5859 48.3939 40.2653L51.2132 39.2401ZM50.7812 37.6561L50.288 34.6969L48.56 34.9849L49.0532 37.9441L49.5464 40.9033L51.2744 40.6153L50.7812 37.6561ZM49.0532 37.9441L46.1198 38.5727C46.2682 39.2652 46.4341 39.9931 46.6659 40.7463L49.5332 39.8641L52.4006 38.9818C52.2483 38.4871 52.1262 37.967 51.9866 37.3155L49.0532 37.9441ZM62.4932 48.4081H65.4932V46.6321H62.4932H59.4932V48.4081H62.4932ZM62.4932 46.6321V43.6321C58.3809 43.6321 55.7309 41.9512 54.4725 39.4344L51.7892 40.7761L49.106 42.1177C51.5916 47.0889 56.6216 49.6321 62.4932 49.6321V46.6321ZM51.7892 40.7761L50.5783 38.0313L48.9463 38.7513L50.1572 41.4961L51.3682 44.2408L53.0002 43.5208L51.7892 40.7761ZM50.1572 41.4961L47.4799 42.8495C50.2778 48.3845 55.8852 51.4081 62.4932 51.4081V48.4081V45.4081C57.7733 45.4081 54.4527 43.3437 52.8346 40.1427L50.1572 41.4961ZM114.558 43.7521L116.419 46.1046L116.425 46.1006L114.558 43.7521ZM84.5099 39.0961L82.6733 36.7239L80.7696 38.1978L81.7963 40.3755L84.5099 39.0961ZM85.9979 37.9441L88.2837 36.0011L86.4275 33.8174L84.1613 35.5719L85.9979 37.9441ZM88.4459 40.8241L86.16 42.767L88.0295 44.9664L90.2993 43.183L88.4459 40.8241ZM89.7899 39.7681L91.6433 42.127L94.0751 40.2164L92.0914 37.8438L89.7899 39.7681ZM87.3419 36.8401L85.5 34.472L83.0469 36.3801L85.0403 38.7643L87.3419 36.8401ZM88.6379 35.8321L90.958 33.9303L89.1043 31.6687L86.796 33.464L88.6379 35.8321ZM91.0379 38.7601L88.7177 40.6619L90.6215 42.9845L92.9421 41.0783L91.0379 38.7601ZM92.3819 37.6561L94.2861 39.9743L96.5977 38.0755L94.7055 35.7585L92.3819 37.6561ZM90.0299 34.7761L88.188 32.408L85.763 34.2942L87.7063 36.6737L90.0299 34.7761ZM91.3259 33.7681L93.6495 31.8705L91.7964 29.6015L89.484 31.4L91.3259 33.7681ZM93.6779 36.6481L91.3543 38.5457L93.2573 40.8759L95.5821 38.9663L93.6779 36.6481ZM95.0219 35.5441L96.9261 37.8623L99.2568 35.9477L97.3297 33.6274L95.0219 35.5441ZM92.6699 32.7121L90.8699 30.3121L88.3479 32.2036L90.362 34.6288L92.6699 32.7121ZM94.2059 31.5601L96.4456 29.5642L94.6115 27.5059L92.4059 29.1601L94.2059 31.5601ZM98.5259 36.4081L96.2861 38.4039L98.223 40.5776L100.454 38.7067L98.5259 36.4081ZM100.014 35.1601L101.942 37.4587L104.26 35.514L102.296 33.2123L100.014 35.1601ZM98.3339 33.1921L96.2949 30.9915L94.182 32.9491L96.0522 35.1399L98.3339 33.1921ZM110.094 22.2961L112.133 24.4967L114.339 22.4528L112.29 20.2518L110.094 22.2961ZM108.798 20.9041L110.994 18.8598L108.956 16.6718L106.761 18.7013L108.798 20.9041ZM106.254 23.2561V26.2561H107.428L108.29 25.4589L106.254 23.2561ZM85.6139 23.2561H82.6139V26.2561H85.6139V23.2561ZM85.6139 8.47208L85.0635 5.52301L82.6139 5.98018V8.47208H85.6139ZM112.494 8.13609L111.636 11.0107L116.205 12.3747L115.457 7.66535L112.494 8.13609ZM111.678 3.00008V8.39233e-05H108.164L108.715 3.47081L111.678 3.00008ZM116.478 3.00008L119.442 2.53542L119.044 8.39233e-05H116.478V3.00008ZM118.254 14.3281V17.3281H121.761L121.218 13.8634L118.254 14.3281ZM113.502 14.3281L110.546 14.8421L110.979 17.3281H113.502V14.3281ZM112.926 11.0161L115.882 10.5021L115.358 7.48974L112.356 8.07074L112.926 11.0161ZM111.438 11.3041L110.868 8.35875L107.993 8.91511L108.48 11.8023L111.438 11.3041ZM112.206 15.8641L109.248 16.3623L109.669 18.8641H112.206V15.8641ZM121.71 15.8641L124.362 14.4611L123.517 12.8641H121.71V15.8641ZM122.766 3.00008L125.73 2.53542L125.332 8.39233e-05H122.766V3.00008ZM124.542 14.3281V17.3281H128.049L127.506 13.8634L124.542 14.3281ZM119.838 14.3281L116.874 14.7927L117.272 17.3281H119.838V14.3281ZM118.062 3.00008V8.39233e-05H114.555L115.098 3.46475L118.062 3.00008ZM104.094 8.80808H107.094V5.80808H104.094V8.80808ZM102.366 8.80808V5.80808H99.3659V8.80808H102.366ZM102.366 10.5841H99.3659V13.5841H102.366V10.5841ZM104.094 10.5841V13.5841H107.094V10.5841H104.094ZM88.2539 10.0561V7.05608H88.0671L87.8818 7.07925L88.2539 10.0561ZM87.4859 10.1521L87.1138 7.17525L84.4859 7.50373V10.1521H87.4859ZM87.4859 14.3761H84.4859V17.3761H87.4859V14.3761ZM89.2619 14.3761V17.3761H92.2619V14.3761H89.2619ZM89.2619 11.6881L88.8898 8.71125L86.2619 9.03974V11.6881H89.2619ZM100.686 10.6321L100.787 13.6304L103.851 13.5271L103.681 10.4657L100.686 10.6321ZM100.59 8.90408L103.585 8.73767L103.422 5.80008L100.482 5.90603L100.59 8.90408ZM118.542 32.4241L115.722 31.3989L114.651 34.3459L117.642 35.2861L118.542 32.4241ZM120.222 32.9521L119.322 35.8141L122.087 36.6828L123.051 33.9505L120.222 32.9521ZM120.798 31.3201L123.627 32.3185L124.696 29.2893L121.601 28.4295L120.798 31.3201ZM119.07 30.8401L119.873 27.9495L116.969 27.1428L116.176 30.0507L119.07 30.8401ZM108.222 43.0801L106.943 40.3665L104.231 41.6449L105.507 44.3575L108.222 43.0801ZM108.99 44.7121L106.275 45.9895L107.563 48.726L110.289 47.4161L108.99 44.7121ZM119.406 34.7761L122.049 36.1951L123.492 33.5066L120.78 32.1092L119.406 34.7761ZM117.822 33.9601L119.196 31.2932L116.568 29.9395L115.176 32.5468L117.822 33.9601ZM114.558 43.7521L112.696 41.3995C107.626 45.4119 102.385 47.0093 98.0004 46.4576C93.7458 45.9222 89.8132 43.3096 87.2234 37.8167L84.5099 39.0961L81.7963 40.3755C85.1585 47.5066 90.7299 51.59 97.2513 52.4106C103.642 53.2148 110.45 50.8283 116.419 46.1046L114.558 43.7521ZM84.5099 39.0961L86.3464 41.4683L87.8344 40.3163L85.9979 37.9441L84.1613 35.5719L82.6733 36.7239L84.5099 39.0961ZM85.9979 37.9441L83.712 39.887L86.16 42.767L88.4459 40.8241L90.7317 38.8811L88.2837 36.0011L85.9979 37.9441ZM88.4459 40.8241L90.2993 43.183L91.6433 42.127L89.7899 39.7681L87.9364 37.4091L86.5924 38.4651L88.4459 40.8241ZM89.7899 39.7681L92.0914 37.8438L89.6434 34.9158L87.3419 36.8401L85.0403 38.7643L87.4883 41.6923L89.7899 39.7681ZM87.3419 36.8401L89.1837 39.2081L90.4797 38.2001L88.6379 35.8321L86.796 33.464L85.5 34.472L87.3419 36.8401ZM88.6379 35.8321L86.3177 37.7339L88.7177 40.6619L91.0379 38.7601L93.358 36.8583L90.958 33.9303L88.6379 35.8321ZM91.0379 38.7601L92.9421 41.0783L94.2861 39.9743L92.3819 37.6561L90.4776 35.3379L89.1336 36.4419L91.0379 38.7601ZM92.3819 37.6561L94.7055 35.7585L92.3535 32.8785L90.0299 34.7761L87.7063 36.6737L90.0583 39.5537L92.3819 37.6561ZM90.0299 34.7761L91.8717 37.1441L93.1677 36.1361L91.3259 33.7681L89.484 31.4L88.188 32.408L90.0299 34.7761ZM91.3259 33.7681L89.0023 35.6657L91.3543 38.5457L93.6779 36.6481L96.0015 34.7505L93.6495 31.8705L91.3259 33.7681ZM93.6779 36.6481L95.5821 38.9663L96.9261 37.8623L95.0219 35.5441L93.1176 33.2259L91.7736 34.3299L93.6779 36.6481ZM95.0219 35.5441L97.3297 33.6274L94.9777 30.7954L92.6699 32.7121L90.362 34.6288L92.714 37.4608L95.0219 35.5441ZM92.6699 32.7121L94.4699 35.1121L96.0059 33.9601L94.2059 31.5601L92.4059 29.1601L90.8699 30.3121L92.6699 32.7121ZM94.2059 31.5601L91.9661 33.5559L96.2861 38.4039L98.5259 36.4081L100.766 34.4122L96.4456 29.5642L94.2059 31.5601ZM98.5259 36.4081L100.454 38.7067L101.942 37.4587L100.014 35.1601L98.086 32.8615L96.598 34.1095L98.5259 36.4081ZM100.014 35.1601L102.296 33.2123L100.616 31.2443L98.3339 33.1921L96.0522 35.1399L97.7322 37.1079L100.014 35.1601ZM98.3339 33.1921L100.373 35.3927L112.133 24.4967L110.094 22.2961L108.055 20.0955L96.2949 30.9915L98.3339 33.1921ZM110.094 22.2961L112.29 20.2518L110.994 18.8598L108.798 20.9041L106.602 22.9483L107.898 24.3403L110.094 22.2961ZM108.798 20.9041L106.761 18.7013L104.217 21.0533L106.254 23.2561L108.29 25.4589L110.834 23.1069L108.798 20.9041ZM106.254 23.2561V20.2561H85.6139V23.2561V26.2561H106.254V23.2561ZM85.6139 23.2561H88.6139V8.47208H85.6139H82.6139V23.2561H85.6139ZM85.6139 8.47208C86.1643 11.4212 86.1639 11.4212 86.1637 11.4213C86.1637 11.4213 86.1635 11.4213 86.1635 11.4213C86.1635 11.4213 86.1638 11.4212 86.1644 11.4211C86.1654 11.4209 86.1675 11.4206 86.1707 11.42C86.1769 11.4188 86.1873 11.4169 86.2016 11.4143C86.2303 11.4091 86.2749 11.401 86.3347 11.3904C86.4544 11.3691 86.6349 11.3376 86.8701 11.2981C87.3407 11.219 88.0294 11.1082 88.8883 10.9834C90.6084 10.7336 92.9985 10.4301 95.6767 10.2144C101.157 9.77308 107.39 9.74325 111.636 11.0107L112.494 8.13609L113.352 5.26143C107.95 3.64892 100.742 3.78709 95.1951 4.23376C92.3593 4.46211 89.8384 4.78253 88.026 5.04573C87.1186 5.1775 86.3857 5.29539 85.8762 5.38097C85.6214 5.42377 85.4222 5.45854 85.2847 5.48296C85.216 5.49518 85.1627 5.50481 85.1256 5.51158C85.107 5.51497 85.0925 5.51763 85.0821 5.51955C85.0769 5.52051 85.0728 5.52128 85.0697 5.52185C85.0681 5.52214 85.0668 5.52238 85.0658 5.52258C85.0653 5.52267 85.0647 5.52278 85.0644 5.52283C85.0639 5.52292 85.0635 5.52301 85.6139 8.47208ZM112.494 8.13609L115.457 7.66535L114.641 2.52935L111.678 3.00008L108.715 3.47081L109.531 8.60682L112.494 8.13609ZM111.678 3.00008V6.00008H116.478V3.00008V8.39233e-05H111.678V3.00008ZM116.478 3.00008L113.514 3.46475L115.29 14.7927L118.254 14.3281L121.218 13.8634L119.442 2.53542L116.478 3.00008ZM118.254 14.3281V11.3281H113.502V14.3281V17.3281H118.254V14.3281ZM113.502 14.3281L116.458 13.8141L115.882 10.5021L112.926 11.0161L109.97 11.5301L110.546 14.8421L113.502 14.3281ZM112.926 11.0161L112.356 8.07074L110.868 8.35875L111.438 11.3041L112.008 14.2494L113.496 13.9614L112.926 11.0161ZM111.438 11.3041L108.48 11.8023L109.248 16.3623L112.206 15.8641L115.164 15.3658L114.396 10.8058L111.438 11.3041ZM112.206 15.8641V18.8641H121.71V15.8641V12.8641H112.206V15.8641ZM121.71 15.8641L119.058 17.267C122.698 24.1468 121.011 34.7901 112.691 41.4036L114.558 43.7521L116.425 46.1006C126.824 37.8341 129.458 24.0933 124.362 14.4611L121.71 15.8641ZM122.766 3.00008L119.802 3.46475L121.578 14.7927L124.542 14.3281L127.506 13.8634L125.73 2.53542L122.766 3.00008ZM124.542 14.3281V11.3281H119.838V14.3281V17.3281H124.542V14.3281ZM119.838 14.3281L122.802 13.8634L121.026 2.53542L118.062 3.00008L115.098 3.46475L116.874 14.7927L119.838 14.3281ZM118.062 3.00008V6.00008H122.766V3.00008V8.39233e-05H118.062V3.00008ZM104.094 8.80808V5.80808H102.366V8.80808V11.8081H104.094V8.80808ZM102.366 8.80808H99.3659V10.5841H102.366H105.366V8.80808H102.366ZM102.366 10.5841V13.5841H104.094V10.5841V7.58408H102.366V10.5841ZM104.094 10.5841H107.094V8.80808H104.094H101.094V10.5841H104.094ZM88.2539 10.0561L87.8818 7.07925L87.1138 7.17525L87.4859 10.1521L87.858 13.1289L88.626 13.0329L88.2539 10.0561ZM87.4859 10.1521H84.4859V14.3761H87.4859H90.4859V10.1521H87.4859ZM87.4859 14.3761V17.3761H89.2619V14.3761V11.3761H87.4859V14.3761ZM89.2619 14.3761H92.2619V11.6881H89.2619H86.2619V14.3761H89.2619ZM89.2619 11.6881L89.634 14.6649C91.5867 14.4208 96.6768 13.7689 100.787 13.6304L100.686 10.6321L100.585 7.63379C96.1509 7.78325 90.777 8.47534 88.8898 8.71125L89.2619 11.6881ZM100.686 10.6321L103.681 10.4657L103.585 8.73767L100.59 8.90408L97.5945 9.0705L97.6905 10.7985L100.686 10.6321ZM100.59 8.90408L100.482 5.90603C97.7083 6.00598 94.5512 6.3033 92.1155 6.5699C90.8903 6.70399 89.8333 6.83193 89.0795 6.92634C88.7024 6.97358 88.4011 7.01243 88.1934 7.03937C88.0874 7.05312 88.0119 7.06296 87.9583 7.06987C87.9312 7.07336 87.9166 7.07521 87.9103 7.07599C87.9059 7.07653 87.9126 7.07568 87.9245 7.07434C87.9293 7.0738 87.9468 7.07182 87.9702 7.06958C87.9813 7.06851 88.005 7.0663 88.0352 7.06408C88.0453 7.06334 88.1373 7.05608 88.2539 7.05608V10.0561V13.0561C88.3708 13.0561 88.4634 13.0488 88.4742 13.048C88.5053 13.0457 88.5299 13.0434 88.5423 13.0422C88.5681 13.0398 88.5889 13.0374 88.5978 13.0364C88.6179 13.0342 88.6361 13.0319 88.6465 13.0307C88.6696 13.0278 88.6975 13.0242 88.7253 13.0206C88.7815 13.0134 88.8657 13.0024 88.965 12.9895C89.1679 12.9632 89.4598 12.9256 89.8252 12.8798C90.5564 12.7882 91.5814 12.6642 92.7683 12.5343C95.1566 12.2729 98.1434 11.9942 100.698 11.9021L100.59 8.90408ZM118.542 32.4241L117.642 35.2861L119.322 35.8141L120.222 32.9521L121.121 30.0901L119.441 29.5621L118.542 32.4241ZM120.222 32.9521L123.051 33.9505L123.627 32.3185L120.798 31.3201L117.969 30.3216L117.393 31.9536L120.222 32.9521ZM120.798 31.3201L121.601 28.4295L119.873 27.9495L119.07 30.8401L118.267 33.7306L119.995 34.2106L120.798 31.3201ZM119.07 30.8401L116.176 30.0507C116.07 30.4386 115.922 30.8491 115.722 31.3989L118.542 32.4241L121.361 33.4493C121.545 32.9431 121.782 32.2976 121.964 31.6294L119.07 30.8401ZM108.222 43.0801L105.507 44.3575L106.275 45.9895L108.99 44.7121L111.704 43.4347L110.936 41.8027L108.222 43.0801ZM108.99 44.7121L110.289 47.4161C114.486 45.3994 119.265 41.3813 122.049 36.1951L119.406 34.7761L116.763 33.3571C114.651 37.2909 110.886 40.4728 107.691 42.0081L108.99 44.7121ZM119.406 34.7761L120.78 32.1092L119.196 31.2932L117.822 33.9601L116.448 36.627L118.032 37.443L119.406 34.7761ZM117.822 33.9601L115.176 32.5468C113.261 36.1322 109.794 39.0221 106.943 40.3665L108.222 43.0801L109.501 45.7937C113.369 43.9701 117.871 40.236 120.468 35.3734L117.822 33.9601ZM152.987 50.0881L150.72 52.0529L152.318 53.897L154.449 52.7077L152.987 50.0881ZM151.739 48.6481L149.822 46.3402L147.466 48.2976L149.472 50.6129L151.739 48.6481ZM154.571 46.2961L156.488 48.604L158.851 46.6417L156.833 44.3257L154.571 46.2961ZM153.275 44.8081L155.537 42.8377L153.577 40.587L151.316 42.5359L153.275 44.8081ZM150.491 47.2081L148.193 49.1359L150.147 51.4659L152.45 49.4803L150.491 47.2081ZM149.243 45.7201L147.304 43.4314L145.027 45.3611L146.945 47.6479L149.243 45.7201ZM152.075 43.3201L154.015 45.6088L156.329 43.6476L154.342 41.3553L152.075 43.3201ZM150.827 41.8801L153.094 39.9153L151.17 37.6954L148.91 39.5722L150.827 41.8801ZM147.995 44.2321L145.66 46.1153L147.57 48.4845L149.912 46.54L147.995 44.2321ZM146.795 42.7441L144.859 40.4524L142.619 42.3448L144.46 44.6273L146.795 42.7441ZM149.579 40.3921L151.515 42.6837L153.799 40.7546L151.878 38.4642L149.579 40.3921ZM148.331 38.9041L150.63 36.9762L148.711 34.6888L146.414 36.5962L148.331 38.9041ZM145.499 41.2561L143.204 43.1885L145.124 45.4676L147.416 43.564L145.499 41.2561ZM143.963 39.4321L142.002 37.1616L139.76 39.0982L141.668 41.3645L143.963 39.4321ZM149.243 34.8721L151.204 37.1426L153.472 35.1835L151.515 32.9133L149.243 34.8721ZM148.043 33.4801L150.315 31.5213L148.354 29.2461L146.081 31.2103L148.043 33.4801ZM141.323 39.2881L139.361 37.0183L137.125 38.9512L139.025 41.2159L141.323 39.2881ZM147.563 46.7281L149.131 49.2859L152.098 47.4671L149.862 44.8002L147.563 46.7281ZM135.995 49.6081L135.461 52.5601L135.473 52.5623L135.485 52.5645L135.995 49.6081ZM125.627 31.9921L128.627 31.9399L128.627 31.9333L125.627 31.9921ZM130.139 13.6561L132.503 15.503L133.272 14.5185L133.115 13.2791L130.139 13.6561ZM129.227 6.45609V3.45609H125.823L126.251 6.83307L129.227 6.45609ZM144.587 6.45609L147.481 7.24544L148.515 3.45609H144.587V6.45609ZM142.427 14.3761L139.533 13.5867L138.731 16.5255L141.682 17.2821L142.427 14.3761ZM144.299 14.8561L143.554 17.7621L146.423 18.4977L147.195 15.6385L144.299 14.8561ZM147.035 4.72808V1.72808H144.738L144.139 3.9457L147.035 4.72808ZM161.291 4.72808L164.179 5.53963L165.25 1.72808H161.291V4.72808ZM158.027 16.3441L155.139 15.5325L154.334 18.3981L157.193 19.2258L158.027 16.3441ZM159.851 16.8721L159.017 19.7538L161.926 20.5958L162.74 17.6794L159.851 16.8721ZM160.763 13.6081L163.297 12.0023L159.688 6.30694L157.874 12.8008L160.763 13.6081ZM137.291 8.13609H140.291V5.13609H137.291V8.13609ZM131.483 8.13609V5.13609H128.102L128.504 8.49352L131.483 8.13609ZM132.059 12.9361L129.08 13.2935L129.439 16.2779L132.422 15.914L132.059 12.9361ZM134.027 12.6961L134.39 15.674L137.384 15.309L137.003 12.3173L134.027 12.6961ZM133.691 10.0561V7.05608H130.285L130.715 10.4348L133.691 10.0561ZM137.291 10.0561V13.0561H140.291V10.0561H137.291ZM140.939 8.13609H143.939V5.13609H140.939V8.13609ZM139.019 8.13609V5.13609H136.019V8.13609H139.019ZM139.019 10.0561H136.019V13.0561H139.019V10.0561ZM140.939 10.0561V13.0561H143.939V10.0561H140.939ZM127.595 27.2401L124.597 27.1225L124.478 30.1631L127.52 30.2391L127.595 27.2401ZM129.515 27.2881L129.44 30.2871L132.448 30.3623L132.514 27.3547L129.515 27.2881ZM133.163 16.4881L135.355 18.5363L137.481 16.2607L135.128 14.221L133.163 16.4881ZM131.723 15.2401L133.688 12.973L131.482 11.061L129.51 13.2143L131.723 15.2401ZM145.595 20.7121H148.595V17.7121H145.595V20.7121ZM143.291 20.7121V17.7121H140.291V20.7121H143.291ZM143.291 22.9201H140.291V25.9201H143.291V22.9201ZM145.595 22.9201V25.9201H148.595V22.9201H145.595ZM161.003 28.6321H158.003V31.7941L161.161 31.6279L161.003 28.6321ZM162.827 28.5361L162.985 31.5319L166.023 31.372L165.82 28.3365L162.827 28.5361ZM162.635 26.7601L165.617 26.4288L165.278 23.3757L162.233 23.7871L162.635 26.7601ZM160.859 27.0001L160.457 24.0271L157.611 24.4117L157.871 27.2717L160.859 27.0001ZM135.179 29.0641H138.179V26.0641H135.179V29.0641ZM133.163 29.0641V26.0641H130.163V29.0641H133.163ZM133.163 35.3521H130.163V38.3521H133.163V35.3521ZM135.179 35.3521V38.3521H138.179V35.3521H135.179ZM158.555 38.9041L156.15 37.1111L154.343 39.5353L156.781 41.3233L158.555 38.9041ZM159.995 39.9601L158.221 42.3793L160.591 44.1171L162.377 41.7838L159.995 39.9601ZM162.875 30.4561H165.875V27.3739L162.794 27.4572L162.875 30.4561ZM161.099 30.5041L161.018 27.5052L158.15 27.5827L158.1 30.4515L161.099 30.5041ZM152.987 50.0881L155.254 48.1233L154.006 46.6833L151.739 48.6481L149.472 50.6129L150.72 52.0529L152.987 50.0881ZM151.739 48.6481L153.656 50.956L156.488 48.604L154.571 46.2961L152.654 43.9882L149.822 46.3402L151.739 48.6481ZM154.571 46.2961L156.833 44.3257L155.537 42.8377L153.275 44.8081L151.013 46.7784L152.309 48.2664L154.571 46.2961ZM153.275 44.8081L151.316 42.5359L148.532 44.9359L150.491 47.2081L152.45 49.4803L155.234 47.0803L153.275 44.8081ZM150.491 47.2081L152.79 45.2802L151.542 43.7922L149.243 45.7201L146.945 47.6479L148.193 49.1359L150.491 47.2081ZM149.243 45.7201L151.183 48.0088L154.015 45.6088L152.075 43.3201L150.136 41.0314L147.304 43.4314L149.243 45.7201ZM152.075 43.3201L154.342 41.3553L153.094 39.9153L150.827 41.8801L148.56 43.8449L149.808 45.2849L152.075 43.3201ZM150.827 41.8801L148.91 39.5722L146.078 41.9242L147.995 44.2321L149.912 46.54L152.744 44.188L150.827 41.8801ZM147.995 44.2321L150.33 42.3488L149.13 40.8608L146.795 42.7441L144.46 44.6273L145.66 46.1153L147.995 44.2321ZM146.795 42.7441L148.731 45.0357L151.515 42.6837L149.579 40.3921L147.643 38.1004L144.859 40.4524L146.795 42.7441ZM149.579 40.3921L151.878 38.4642L150.63 36.9762L148.331 38.9041L146.033 40.8319L147.281 42.3199L149.579 40.3921ZM148.331 38.9041L146.414 36.5962L143.582 38.9482L145.499 41.2561L147.416 43.564L150.248 41.212L148.331 38.9041ZM145.499 41.2561L147.794 39.3237L146.258 37.4997L143.963 39.4321L141.668 41.3645L143.204 43.1885L145.499 41.2561ZM143.963 39.4321L145.924 41.7026L151.204 37.1426L149.243 34.8721L147.282 32.6016L142.002 37.1616L143.963 39.4321ZM149.243 34.8721L151.515 32.9133L150.315 31.5213L148.043 33.4801L145.771 35.4389L146.971 36.8309L149.243 34.8721ZM148.043 33.4801L146.081 31.2103L139.361 37.0183L141.323 39.2881L143.285 41.5578L150.005 35.7498L148.043 33.4801ZM141.323 39.2881L139.025 41.2159L145.265 48.6559L147.563 46.7281L149.862 44.8002L143.622 37.3602L141.323 39.2881ZM147.563 46.7281L145.995 44.1703C143.256 45.8491 139.617 47.1883 136.505 46.6517L135.995 49.6081L135.485 52.5645C140.725 53.4678 145.918 51.255 149.131 49.2859L147.563 46.7281ZM135.995 49.6081L136.53 46.6561C134.31 46.2542 132.497 45.1024 131.14 42.9347C129.724 40.6723 128.717 37.1435 128.627 31.9399L125.627 31.9921L122.628 32.0443C122.729 37.8806 123.858 42.6079 126.054 46.1175C128.31 49.7218 131.584 51.858 135.461 52.5601L135.995 49.6081ZM125.627 31.9921L128.627 31.9333C128.487 24.7939 129.552 19.2801 132.503 15.503L130.139 13.6561L127.775 11.8092C123.526 17.248 122.48 24.5023 122.628 32.0509L125.627 31.9921ZM130.139 13.6561L133.115 13.2791L132.203 6.0791L129.227 6.45609L126.251 6.83307L127.163 14.0331L130.139 13.6561ZM129.227 6.45609V9.45609H144.587V6.45609V3.45609H129.227V6.45609ZM144.587 6.45609L141.693 5.66673L139.533 13.5867L142.427 14.3761L145.321 15.1654L147.481 7.24544L144.587 6.45609ZM142.427 14.3761L141.682 17.2821L143.554 17.7621L144.299 14.8561L145.044 11.9501L143.172 11.4701L142.427 14.3761ZM144.299 14.8561L147.195 15.6385L149.931 5.51047L147.035 4.72808L144.139 3.9457L141.403 14.0737L144.299 14.8561ZM147.035 4.72808V7.72808H161.291V4.72808V1.72808H147.035V4.72808ZM161.291 4.72808L158.403 3.91654L155.139 15.5325L158.027 16.3441L160.915 17.1556L164.179 5.53963L161.291 4.72808ZM158.027 16.3441L157.193 19.2258L159.017 19.7538L159.851 16.8721L160.685 13.9904L158.861 13.4624L158.027 16.3441ZM159.851 16.8721L162.74 17.6794L163.652 14.4154L160.763 13.6081L157.874 12.8008L156.962 16.0648L159.851 16.8721ZM160.763 13.6081L158.229 15.2138C160.852 19.3539 161.747 24.772 161.747 30.6961H164.747H167.747C167.747 24.3322 166.818 17.5583 163.297 12.0023L160.763 13.6081ZM164.747 30.6961H161.747C161.747 38.137 156.964 44.4328 151.525 47.4685L152.987 50.0881L154.449 52.7077C161.394 48.8313 167.747 40.7272 167.747 30.6961H164.747ZM137.291 8.13609V5.13609H131.483V8.13609V11.1361H137.291V8.13609ZM131.483 8.13609L128.504 8.49352L129.08 13.2935L132.059 12.9361L135.038 12.5786L134.462 7.77865L131.483 8.13609ZM132.059 12.9361L132.422 15.914L134.39 15.674L134.027 12.6961L133.664 9.71815L131.696 9.95815L132.059 12.9361ZM134.027 12.6961L137.003 12.3173L136.667 9.67732L133.691 10.0561L130.715 10.4348L131.051 13.0748L134.027 12.6961ZM133.691 10.0561V13.0561H137.291V10.0561V7.05608H133.691V10.0561ZM137.291 10.0561H140.291V8.13609H137.291H134.291V10.0561H137.291ZM140.939 8.13609V5.13609H139.019V8.13609V11.1361H140.939V8.13609ZM139.019 8.13609H136.019V10.0561H139.019H142.019V8.13609H139.019ZM139.019 10.0561V13.0561H140.939V10.0561V7.05608H139.019V10.0561ZM140.939 10.0561H143.939V8.13609H140.939H137.939V10.0561H140.939ZM127.595 27.2401L127.52 30.2391L129.44 30.2871L129.515 27.2881L129.59 24.289L127.67 24.241L127.595 27.2401ZM129.515 27.2881L132.514 27.3547C132.533 26.5272 132.723 24.8022 133.225 22.9669C133.741 21.0794 134.479 19.474 135.355 18.5363L133.163 16.4881L130.971 14.4398C129.111 16.4302 128.049 19.1447 127.437 21.3853C126.811 23.678 126.545 25.889 126.516 27.2214L129.515 27.2881ZM133.163 16.4881L135.128 14.221L133.688 12.973L131.723 15.2401L129.758 17.5072L131.198 18.7552L133.163 16.4881ZM131.723 15.2401L129.51 13.2143C127.49 15.4213 126.32 18.3312 125.635 20.7972C124.938 23.3056 124.654 25.6849 124.597 27.1225L127.595 27.2401L130.593 27.3576C130.632 26.3472 130.852 24.4305 131.416 22.403C131.991 20.333 132.836 18.4668 133.936 17.2658L131.723 15.2401ZM145.595 20.7121V17.7121H143.291V20.7121V23.7121H145.595V20.7121ZM143.291 20.7121H140.291V22.9201H143.291H146.291V20.7121H143.291ZM143.291 22.9201V25.9201H145.595V22.9201V19.9201H143.291V22.9201ZM145.595 22.9201H148.595V20.7121H145.595H142.595V22.9201H145.595ZM161.003 28.6321L161.161 31.6279L162.985 31.5319L162.827 28.5361L162.669 25.5402L160.845 25.6362L161.003 28.6321ZM162.827 28.5361L165.82 28.3365C165.767 27.5355 165.647 26.6965 165.617 26.4288L162.635 26.7601L159.653 27.0914C159.72 27.6877 159.791 28.0967 159.834 28.7356L162.827 28.5361ZM162.635 26.7601L162.233 23.7871L160.457 24.0271L160.859 27.0001L161.261 29.9731L163.037 29.7331L162.635 26.7601ZM160.859 27.0001L157.871 27.2717C157.952 28.1572 158.003 28.2199 158.003 28.6321H161.003H164.003C164.003 27.8923 163.862 26.899 163.847 26.7285L160.859 27.0001ZM135.179 29.0641V26.0641H133.163V29.0641V32.0641H135.179V29.0641ZM133.163 29.0641H130.163V35.3521H133.163H136.163V29.0641H133.163ZM133.163 35.3521V38.3521H135.179V35.3521V32.3521H133.163V35.3521ZM135.179 35.3521H138.179V29.0641H135.179H132.179V35.3521H135.179ZM158.555 38.9041L156.781 41.3233L158.221 42.3793L159.995 39.9601L161.769 37.5409L160.329 36.4849L158.555 38.9041ZM159.995 39.9601L162.377 41.7838C165.297 37.9697 165.875 33.5573 165.875 30.4561H162.875H159.875C159.875 32.9229 159.397 35.8065 157.613 38.1364L159.995 39.9601ZM162.875 30.4561L162.794 27.4572L161.018 27.5052L161.099 30.5041L161.18 33.503L162.956 33.455L162.875 30.4561ZM161.099 30.5041L158.1 30.4515C158.057 32.8668 157.593 35.1751 156.15 37.1111L158.555 38.9041L160.96 40.6971C163.453 37.3531 164.045 33.6134 164.099 30.5567L161.099 30.5041ZM197.752 10.0081L194.754 10.0914L194.8 11.7573L196.239 12.5982L197.752 10.0081ZM196.552 44.4721L195.465 41.6761L193.844 42.3066L193.586 44.0271L196.552 44.4721ZM195.4 49.5121V52.5121H197.288L198.105 50.8103L195.4 49.5121ZM179.8 49.5121L176.847 48.9847L176.217 52.5121H179.8V49.5121ZM180.328 43.8481L183.322 44.0476L183.487 41.5741L181.088 40.946L180.328 43.8481ZM174.952 41.7361L172.068 40.9119L171.406 43.2292L173.526 44.3752L174.952 41.7361ZM175.336 40.3921L176.129 37.4987L173.267 36.7146L172.452 39.5679L175.336 40.3921ZM178.84 41.3521L178.048 44.2455L180.987 45.0507L181.746 42.0992L178.84 41.3521ZM179.272 39.6721L182.178 40.4192L182.911 37.5691L180.075 36.7815L179.272 39.6721ZM175.816 38.7121L172.922 37.9227L172.136 40.8035L175.013 41.6026L175.816 38.7121ZM176.248 37.1281L177.051 34.2375L174.147 33.4308L173.354 36.3387L176.248 37.1281ZM179.704 38.0881L178.901 40.9786L181.771 41.7757L182.589 38.9122L179.704 38.0881ZM180.184 36.4081L183.069 37.2322L183.899 34.3264L180.987 33.5175L180.184 36.4081ZM176.728 35.4481L173.84 34.6358L173.026 37.5331L175.925 38.3386L176.728 35.4481ZM177.16 33.9121L177.926 31.0114L175.072 30.2582L174.272 33.0998L177.16 33.9121ZM180.616 34.8241L179.851 37.7248L182.77 38.4951L183.522 35.5712L180.616 34.8241ZM181.048 33.1441L183.954 33.8912L184.694 31.014L181.824 30.2461L181.048 33.1441ZM177.64 32.2321L174.756 31.4079L173.918 34.3414L176.865 35.1301L177.64 32.2321ZM178.024 30.8881L180.909 31.7122L181.736 28.8179L178.839 28.0007L178.024 30.8881ZM176.152 30.3601L176.967 27.4727L174.07 26.6556L173.262 29.5554L176.152 30.3601ZM172.744 42.6001L169.854 41.7954L169.241 43.9968L171.201 45.1726L172.744 42.6001ZM176.584 44.6161L179.505 45.3032L180.077 42.8719L177.789 41.8687L176.584 44.6161ZM175.96 46.8721V49.8721H178.075L178.786 47.8811L175.96 46.8721ZM166.936 46.8721H163.936V49.8721H166.936V46.8721ZM166.936 7.51208V4.51208H163.936V7.51208H166.936ZM179.608 7.51208H182.608V4.51208H179.608V7.51208ZM179.608 9.57608L181.238 12.0948L182.608 11.2082V9.57608H179.608ZM176.2 11.9761L174.215 9.72657L171.963 11.714L173.953 13.9638L176.2 11.9761ZM177.304 13.2241L175.057 15.2118L176.997 17.4047L179.237 15.5188L177.304 13.2241ZM181.336 10.4881L182.971 13.0034L184.336 12.1161V10.4881H181.336ZM181.336 4.63208V1.63208H178.336V4.63208H181.336ZM197.512 4.63208L200.508 4.47844L200.362 1.63208H197.512V4.63208ZM170.44 18.8401V21.8401H173.44V18.8401H170.44ZM170.44 10.9681V7.96809H167.44V10.9681H170.44ZM172.744 10.9681V13.9681H175.744V10.9681H172.744ZM172.744 9.24008H175.744V6.24008H172.744V9.24008ZM168.712 9.24008V6.24008H165.712V9.24008H168.712ZM168.712 18.8401H165.712V21.8401H168.712V18.8401ZM174.28 9.24008V6.24008H171.28V9.24008H174.28ZM174.28 11.0161H171.28V14.0161H174.28V11.0161ZM176.008 11.0161V14.0161H179.008V11.0161H176.008ZM176.008 9.24008H179.008V6.24008H176.008V9.24008ZM201.352 17.9281L204.083 16.6867L202.856 13.9858L200.141 15.1833L201.352 17.9281ZM199.72 18.6481L198.509 15.9033L195.629 17.174L197.037 19.9897L199.72 18.6481ZM200.296 20.1841L197.402 20.9734L198.201 23.9028L201.121 23.0687L200.296 20.1841ZM201.976 19.7041L202.801 22.5887L205.744 21.7477L204.844 18.8218L201.976 19.7041ZM200.056 33.8641L197.152 33.1135L196.395 36.0411L199.329 36.7745L200.056 33.8641ZM201.784 34.2961L201.057 37.2065L204.045 37.9535L204.713 34.9469L201.784 34.2961ZM202.36 21.3841L205.304 20.8032L204.689 17.6878L201.613 18.4786L202.36 21.3841ZM200.68 21.8161L199.933 18.9106L197.226 19.6068L197.729 22.3564L200.68 21.8161ZM192.424 29.0161L190.007 27.2389L188.185 29.7179L190.709 31.4773L192.424 29.0161ZM194.008 30.1201L192.293 32.5813L194.702 34.2604L196.432 31.8876L194.008 30.1201ZM194.008 22.2961L196.466 20.5757L194.749 18.123L192.293 19.8349L194.008 22.2961ZM192.424 23.4001L190.709 20.9389L188.252 22.6514L189.96 25.1113L192.424 23.4001ZM178.216 24.2161V21.2161H175.216V24.2161H178.216ZM178.216 27.0961H175.216V30.0961H178.216V27.0961ZM180.232 27.0961V30.0961H183.232V27.0961H180.232ZM180.232 24.2161H183.232V21.2161H180.232V24.2161ZM197.752 10.0081L196.239 12.5982C197.654 13.4253 199.045 14.676 200.107 16.696C201.181 18.7399 202 21.7283 202 26.1361H205H208C208 20.9919 207.043 16.9963 205.418 13.9041C203.78 10.7882 201.547 8.75086 199.266 7.41797L197.752 10.0081ZM205 26.1361H202C202 35.4762 199.635 40.0545 195.465 41.6761L196.552 44.4721L197.64 47.2681C205.566 44.1857 208 35.9 208 26.1361H205ZM196.552 44.4721L193.586 44.0271C193.312 45.8499 193.047 46.9886 192.869 47.6314C192.78 47.952 192.714 48.1452 192.681 48.2354C192.665 48.2804 192.657 48.2991 192.659 48.2946C192.66 48.2924 192.663 48.2843 192.669 48.2707C192.672 48.2639 192.676 48.2558 192.681 48.2463C192.683 48.2415 192.685 48.2365 192.688 48.2311C192.689 48.2284 192.69 48.2256 192.692 48.2227C192.692 48.2213 192.693 48.2198 192.694 48.2184C192.694 48.2176 192.695 48.2165 192.695 48.2161C192.695 48.215 192.696 48.2139 195.4 49.5121C198.105 50.8103 198.105 50.8091 198.106 50.808C198.106 50.8076 198.107 50.8065 198.107 50.8057C198.108 50.8042 198.109 50.8026 198.109 50.801C198.111 50.7979 198.112 50.7946 198.114 50.7913C198.117 50.7848 198.12 50.7779 198.124 50.7708C198.13 50.7565 198.137 50.7412 198.145 50.7247C198.159 50.6916 198.176 50.654 198.194 50.6114C198.229 50.5264 198.271 50.4213 198.317 50.2938C198.41 50.039 198.524 49.6922 198.652 49.2327C198.906 48.3155 199.217 46.9343 199.519 44.9171L196.552 44.4721ZM195.4 49.5121V46.5121H179.8V49.5121V52.5121H195.4V49.5121ZM179.8 49.5121C182.754 50.0395 182.754 50.039 182.754 50.0384C182.754 50.0383 182.754 50.0377 182.754 50.0374C182.754 50.0367 182.754 50.036 182.754 50.0352C182.755 50.0337 182.755 50.0321 182.755 50.0305C182.756 50.0272 182.756 50.0236 182.757 50.0197C182.758 50.0118 182.76 50.0027 182.762 49.9922C182.765 49.9713 182.77 49.9451 182.775 49.9132C182.785 49.8493 182.798 49.7623 182.814 49.6492C182.845 49.4231 182.888 49.0906 182.939 48.6269C183.04 47.7003 183.175 46.241 183.322 44.0476L180.328 43.8481L177.335 43.6485C177.193 45.7752 177.065 47.1478 176.974 47.9733C176.929 48.3856 176.894 48.6591 176.871 48.82C176.86 48.9003 176.852 48.9521 176.848 48.9786C176.846 48.9919 176.845 48.9987 176.844 48.9996C176.844 49.0001 176.845 48.999 176.845 48.9965C176.845 48.9953 176.846 48.9937 176.846 48.9917C176.846 48.9907 176.846 48.9896 176.846 48.9885C176.847 48.9879 176.847 48.9873 176.847 48.9867C176.847 48.9863 176.847 48.9859 176.847 48.9857C176.847 48.9852 176.847 48.9847 179.8 49.5121ZM180.328 43.8481L181.088 40.946C179.299 40.4774 177.939 39.9405 176.379 39.097L174.952 41.7361L173.526 44.3752C175.517 45.4517 177.326 46.1628 179.568 46.7502L180.328 43.8481ZM174.952 41.7361L177.837 42.5602L178.221 41.2162L175.336 40.3921L172.452 39.5679L172.068 40.9119L174.952 41.7361ZM175.336 40.3921L174.544 43.2855L178.048 44.2455L178.84 41.3521L179.633 38.4587L176.129 37.4987L175.336 40.3921ZM178.84 41.3521L181.746 42.0992L182.178 40.4192L179.272 39.6721L176.367 38.925L175.935 40.605L178.84 41.3521ZM179.272 39.6721L180.075 36.7815L176.619 35.8215L175.816 38.7121L175.013 41.6026L178.469 42.5626L179.272 39.6721ZM175.816 38.7121L178.711 39.5014L179.143 37.9174L176.248 37.1281L173.354 36.3387L172.922 37.9227L175.816 38.7121ZM176.248 37.1281L175.445 40.0186L178.901 40.9786L179.704 38.0881L180.507 35.1975L177.051 34.2375L176.248 37.1281ZM179.704 38.0881L182.589 38.9122L183.069 37.2322L180.184 36.4081L177.3 35.5839L176.82 37.2639L179.704 38.0881ZM180.184 36.4081L180.987 33.5175L177.531 32.5575L176.728 35.4481L175.925 38.3386L179.381 39.2986L180.184 36.4081ZM176.728 35.4481L179.616 36.2603L180.048 34.7243L177.16 33.9121L174.272 33.0998L173.84 34.6358L176.728 35.4481ZM177.16 33.9121L176.395 36.8128L179.851 37.7248L180.616 34.8241L181.382 31.9234L177.926 31.0114L177.16 33.9121ZM180.616 34.8241L183.522 35.5712L183.954 33.8912L181.048 33.1441L178.143 32.397L177.711 34.077L180.616 34.8241ZM181.048 33.1441L181.824 30.2461L178.416 29.3341L177.64 32.2321L176.865 35.1301L180.273 36.0421L181.048 33.1441ZM177.64 32.2321L180.525 33.0563L180.909 31.7122L178.024 30.8881L175.14 30.0639L174.756 31.4079L177.64 32.2321ZM178.024 30.8881L178.839 28.0007L176.967 27.4727L176.152 30.3601L175.338 33.2474L177.21 33.7754L178.024 30.8881ZM176.152 30.3601L173.262 29.5554L169.854 41.7954L172.744 42.6001L175.634 43.4048L179.042 31.1648L176.152 30.3601ZM172.744 42.6001L171.201 45.1726C171.603 45.4138 172.425 46.0676 175.379 47.3634L176.584 44.6161L177.789 41.8687C176.491 41.2993 175.749 40.9134 175.304 40.6596C175.084 40.5342 174.923 40.4336 174.787 40.3461C174.694 40.2862 174.462 40.132 174.288 40.0276L172.744 42.6001ZM176.584 44.6161L173.664 43.929C173.472 44.7468 173.312 45.3666 173.135 45.8631L175.96 46.8721L178.786 47.8811C179.088 47.0336 179.313 46.1174 179.505 45.3032L176.584 44.6161ZM175.96 46.8721V43.8721H166.936V46.8721V49.8721H175.96V46.8721ZM166.936 46.8721H169.936V7.51208H166.936H163.936V46.8721H166.936ZM166.936 7.51208V10.5121H179.608V7.51208V4.51208H166.936V7.51208ZM179.608 7.51208H176.608V9.57608H179.608H182.608V7.51208H179.608ZM179.608 9.57608L177.979 7.05737C177.251 7.52818 175.241 8.82193 174.215 9.72657L176.2 11.9761L178.185 14.2256C178.792 13.6902 180.334 12.68 181.238 12.0948L179.608 9.57608ZM176.2 11.9761L173.953 13.9638L175.057 15.2118L177.304 13.2241L179.551 11.2364L178.447 9.98836L176.2 11.9761ZM177.304 13.2241L179.237 15.5188C179.961 14.9093 181.845 13.7357 182.971 13.0034L181.336 10.4881L179.701 7.97276C178.908 8.48848 176.472 10.0028 175.372 10.9293L177.304 13.2241ZM181.336 10.4881H184.336V4.63208H181.336H178.336V10.4881H181.336ZM181.336 4.63208V7.63208H197.512V4.63208V1.63208H181.336V4.63208ZM197.512 4.63208L194.516 4.78572C194.613 6.67345 194.707 8.40716 194.754 10.0914L197.752 10.0081L200.751 9.92479C200.702 8.15301 200.604 6.33472 200.508 4.47844L197.512 4.63208ZM170.44 18.8401H173.44V10.9681H170.44H167.44V18.8401H170.44ZM170.44 10.9681V13.9681H172.744V10.9681V7.96809H170.44V10.9681ZM172.744 10.9681H175.744V9.24008H172.744H169.744V10.9681H172.744ZM172.744 9.24008V6.24008H168.712V9.24008V12.2401H172.744V9.24008ZM168.712 9.24008H165.712V18.8401H168.712H171.712V9.24008H168.712ZM168.712 18.8401V21.8401H170.44V18.8401V15.8401H168.712V18.8401ZM174.28 9.24008H171.28V11.0161H174.28H177.28V9.24008H174.28ZM174.28 11.0161V14.0161H176.008V11.0161V8.01608H174.28V11.0161ZM176.008 11.0161H179.008V9.24008H176.008H173.008V11.0161H176.008ZM176.008 9.24008V6.24008H174.28V9.24008V12.2401H176.008V9.24008ZM201.352 17.9281L200.141 15.1833L198.509 15.9033L199.72 18.6481L200.931 21.3928L202.563 20.6728L201.352 17.9281ZM199.72 18.6481L197.037 19.9897C197.174 20.263 197.3 20.6007 197.402 20.9734L200.296 20.1841L203.191 19.3947C203.004 18.7115 202.747 17.9931 202.404 17.3064L199.72 18.6481ZM200.296 20.1841L201.121 23.0687L202.801 22.5887L201.976 19.7041L201.152 16.8195L199.472 17.2995L200.296 20.1841ZM201.976 19.7041L204.844 18.8218C204.666 18.2449 204.419 17.4239 204.083 16.6867L201.352 17.9281L198.621 19.1695C198.766 19.4882 198.903 19.9153 199.109 20.5863L201.976 19.7041ZM200.056 33.8641L199.329 36.7745L201.057 37.2065L201.784 34.2961L202.512 31.3857L200.784 30.9537L200.056 33.8641ZM201.784 34.2961L204.713 34.9469C205.825 29.9405 206.129 24.9866 205.304 20.8032L202.36 21.3841L199.417 21.965C200.031 25.0776 199.855 29.1476 198.856 33.6453L201.784 34.2961ZM202.36 21.3841L201.613 18.4786L199.933 18.9106L200.68 21.8161L201.427 24.7216L203.107 24.2896L202.36 21.3841ZM200.68 21.8161L197.729 22.3564C198.267 25.2932 198.158 29.2192 197.152 33.1135L200.056 33.8641L202.961 34.6147C204.163 29.9649 204.342 25.155 203.631 21.2758L200.68 21.8161ZM192.424 29.0161L190.709 31.4773L192.293 32.5813L194.008 30.1201L195.724 27.6589L194.14 26.5549L192.424 29.0161ZM194.008 30.1201L196.432 31.8876C198.896 28.5095 198.854 23.9869 196.466 20.5757L194.008 22.2961L191.551 24.0165C192.523 25.4052 192.481 27.1226 191.584 28.3526L194.008 30.1201ZM194.008 22.2961L192.293 19.8349L190.709 20.9389L192.424 23.4001L194.14 25.8613L195.724 24.7573L194.008 22.2961ZM192.424 23.4001L189.96 25.1113C190.467 25.841 190.409 26.6931 190.007 27.2389L192.424 29.0161L194.841 30.7933C196.84 28.075 196.782 24.4151 194.888 21.6889L192.424 23.4001ZM178.216 24.2161H175.216V27.0961H178.216H181.216V24.2161H178.216ZM178.216 27.0961V30.0961H180.232V27.0961V24.0961H178.216V27.0961ZM180.232 27.0961H183.232V24.2161H180.232H177.232V27.0961H180.232ZM180.232 24.2161V21.2161H178.216V24.2161V27.2161H180.232V24.2161ZM215.35 8.95208L212.84 7.30911L211.147 9.89492L213.782 11.5099L215.35 8.95208ZM216.838 9.86408L215.27 12.4219L217.794 13.9686L219.374 11.4661L216.838 9.86408ZM225.142 6.60008L225.099 9.59978L228.142 9.64325V6.60008H225.142ZM225.142 4.87208H228.142V1.91346L225.183 1.87237L225.142 4.87208ZM228.598 4.87208H231.598V1.87208H228.598V4.87208ZM226.774 4.87208V1.87208H223.774V4.87208H226.774ZM226.774 6.60008H223.774V9.60008H226.774V6.60008ZM228.598 6.60008V9.60008H231.598V6.60008H228.598ZM210.934 48.0241L207.945 48.284L208.129 50.4066L210.194 50.9316L210.934 48.0241ZM210.838 46.9201L210.227 43.9828L207.618 44.525L207.849 47.18L210.838 46.9201ZM214.534 46.1521L215.144 49.0893L217.809 48.5356L217.516 45.8296L214.534 46.1521ZM214.342 44.3761L217.324 44.0536L216.964 40.7248L213.695 41.4466L214.342 44.3761ZM210.646 45.1921L207.666 45.5426L208.054 48.8366L211.292 48.1215L210.646 45.1921ZM210.454 43.5601L209.851 40.6213L207.152 41.1748L207.474 43.9106L210.454 43.5601ZM214.198 42.7921L214.8 45.7309L217.402 45.1971L217.188 42.5496L214.198 42.7921ZM214.054 41.0161L217.044 40.7736L216.771 37.4049L213.458 38.0758L214.054 41.0161ZM210.262 41.7841L207.274 42.0557L207.577 45.3887L210.857 44.7244L210.262 41.7841ZM210.118 40.2001L209.479 37.2689L206.89 37.8331L207.13 40.4717L210.118 40.2001ZM213.862 39.3841L214.5 42.3153L217.07 41.7553L216.851 39.1349L213.862 39.3841ZM213.718 37.6561L216.707 37.4069L216.427 34.0464L213.122 34.7158L213.718 37.6561ZM209.926 38.4241L206.943 38.7465L207.297 42.0175L210.521 41.3644L209.926 38.4241ZM209.734 36.6481L208.782 33.8032L206.491 34.5696L206.751 36.9705L209.734 36.6481ZM233.83 28.5841L234.782 31.429L237.623 30.4781L236.676 27.6354L233.83 28.5841ZM233.206 26.7121L236.052 25.7634L235.101 22.9105L232.25 23.8683L233.206 26.7121ZM221.206 30.7441V33.7441H221.696L222.161 33.5879L221.206 30.7441ZM208.534 30.7441H205.534V33.7441H208.534V30.7441ZM208.534 15.7201L209.261 12.8097L205.534 11.8777V15.7201H208.534ZM211.462 15.0961L214.216 13.9068L213.226 11.6154L210.793 12.1715L211.462 15.0961ZM240.886 16.8241L242.81 14.5225L240.436 12.5375L238.525 14.9722L240.886 16.8241ZM233.11 46.4881L234.241 49.2667L234.248 49.2636L234.256 49.2605L233.11 46.4881ZM241.75 30.8881L238.76 30.6389L238.511 33.6286L241.5 33.8777L241.75 30.8881ZM243.478 31.0321L243.228 34.0217L246.017 34.2541L246.443 31.4883L243.478 31.0321ZM243.622 29.2081H246.622V26.2081H243.622V29.2081ZM241.846 29.2081V26.2081H238.846V29.2081H241.846ZM231.046 42.6961L230.266 39.7992L227.366 40.5799L228.15 43.4788L231.046 42.6961ZM231.526 44.4721L228.63 45.2548L229.419 48.1763L232.334 47.3612L231.526 44.4721ZM241.558 36.7921L244.18 38.249V38.249L241.558 36.7921ZM243.142 32.6641L246.063 33.3458L246.807 30.1573L243.566 29.6942L243.142 32.6641ZM241.462 32.4241L241.886 29.4542L239.239 29.0762L238.56 31.6618L241.462 32.4241ZM226.678 19.7521V16.7521C220.936 16.7521 218.256 15.5213 217.039 14.4886C215.914 13.5346 215.662 12.4248 215.662 11.4961H212.662H209.662C209.662 13.6394 210.321 16.6575 213.157 19.0636C215.899 21.3908 220.227 22.7521 226.678 22.7521V19.7521ZM212.662 11.4961H215.662C215.662 10.5553 215.923 9.38171 217.07 8.38036C218.289 7.3164 220.96 6.04808 226.678 6.04808V3.04808V0.0480843C220.203 0.0480843 215.866 1.46777 213.125 3.85981C210.312 6.31445 209.662 9.36489 209.662 11.4961H212.662ZM226.678 3.04808V6.04808C232.395 6.04808 235.066 7.3164 236.285 8.38036C237.432 9.38171 237.694 10.5553 237.694 11.4961H240.694H243.694C243.694 9.36489 243.043 6.31445 240.23 3.85981C237.489 1.46777 233.152 0.0480843 226.678 0.0480843V3.04808ZM240.694 11.4961H237.694C237.694 12.4248 237.441 13.5346 236.317 14.4886C235.099 15.5213 232.419 16.7521 226.678 16.7521V19.7521V22.7521C233.128 22.7521 237.456 21.3908 240.199 19.0636C243.034 16.6575 243.694 13.6394 243.694 11.4961H240.694ZM215.35 8.95208L213.782 11.5099L215.27 12.4219L216.838 9.86408L218.405 7.30628L216.917 6.39428L215.35 8.95208ZM216.838 9.86408L219.374 11.4661C219.371 11.4708 219.398 11.4277 219.483 11.3454C219.566 11.2642 219.688 11.161 219.858 11.0431C220.203 10.8043 220.675 10.5514 221.259 10.3223C222.44 9.85822 223.842 9.58182 225.099 9.59978L225.142 6.60008L225.184 3.60039C223.081 3.57035 220.907 4.01395 219.065 4.73783C217.332 5.41842 215.383 6.54838 214.301 8.2621L216.838 9.86408ZM225.142 6.60008H228.142V4.87208H225.142H222.142V6.60008H225.142ZM225.142 4.87208L225.183 1.87237C223.053 1.84278 220.656 2.27824 218.516 3.10598C216.433 3.91135 214.19 5.24606 212.84 7.30911L215.35 8.95208L217.86 10.5951C218.237 10.0181 219.162 9.28882 220.68 8.70219C222.139 8.13792 223.774 7.85338 225.1 7.87179L225.142 4.87208ZM228.598 4.87208V1.87208H226.774V4.87208V7.87208H228.598V4.87208ZM226.774 4.87208H223.774V6.60008H226.774H229.774V4.87208H226.774ZM226.774 6.60008V9.60008H228.598V6.60008V3.60008H226.774V6.60008ZM228.598 6.60008H231.598V4.87208H228.598H225.598V6.60008H228.598ZM210.934 48.0241L213.922 47.7642L213.826 46.6602L210.838 46.9201L207.849 47.18L207.945 48.284L210.934 48.0241ZM210.838 46.9201L211.448 49.8573L215.144 49.0893L214.534 46.1521L213.923 43.2148L210.227 43.9828L210.838 46.9201ZM214.534 46.1521L217.516 45.8296L217.324 44.0536L214.342 44.3761L211.359 44.6985L211.551 46.4745L214.534 46.1521ZM214.342 44.3761L213.695 41.4466L209.999 42.2626L210.646 45.1921L211.292 48.1215L214.988 47.3055L214.342 44.3761ZM210.646 45.1921L213.625 44.8416L213.433 43.2096L210.454 43.5601L207.474 43.9106L207.666 45.5426L210.646 45.1921ZM210.454 43.5601L211.056 46.4989L214.8 45.7309L214.198 42.7921L213.595 39.8533L209.851 40.6213L210.454 43.5601ZM214.198 42.7921L217.188 42.5496L217.044 40.7736L214.054 41.0161L211.063 41.2585L211.207 43.0345L214.198 42.7921ZM214.054 41.0161L213.458 38.0758L209.666 38.8438L210.262 41.7841L210.857 44.7244L214.649 43.9564L214.054 41.0161ZM210.262 41.7841L213.249 41.5125L213.105 39.9285L210.118 40.2001L207.13 40.4717L207.274 42.0557L210.262 41.7841ZM210.118 40.2001L210.756 43.1313L214.5 42.3153L213.862 39.3841L213.223 36.4529L209.479 37.2689L210.118 40.2001ZM213.862 39.3841L216.851 39.1349L216.707 37.4069L213.718 37.6561L210.728 37.9052L210.872 39.6332L213.862 39.3841ZM213.718 37.6561L213.122 34.7158L209.33 35.4838L209.926 38.4241L210.521 41.3644L214.313 40.5964L213.718 37.6561ZM209.926 38.4241L212.908 38.1016L212.716 36.3256L209.734 36.6481L206.751 36.9705L206.943 38.7465L209.926 38.4241ZM209.734 36.6481L210.686 39.493L234.782 31.429L233.83 28.5841L232.878 25.7392L208.782 33.8032L209.734 36.6481ZM233.83 28.5841L236.676 27.6354L236.052 25.7634L233.206 26.7121L230.36 27.6608L230.984 29.5328L233.83 28.5841ZM233.206 26.7121L232.25 23.8683L220.25 27.9003L221.206 30.7441L222.161 33.5879L234.161 29.5559L233.206 26.7121ZM221.206 30.7441V27.7441H208.534V30.7441V33.7441H221.206V30.7441ZM208.534 30.7441H211.534V15.7201H208.534H205.534V30.7441H208.534ZM208.534 15.7201L207.806 18.6305C208.337 18.7632 208.793 18.7206 208.884 18.7133C209.064 18.6989 209.228 18.6734 209.346 18.6532C209.584 18.6121 209.854 18.5527 210.109 18.4944C210.373 18.434 210.684 18.3597 211.015 18.2813C211.351 18.2015 211.723 18.1138 212.13 18.0207L211.462 15.0961L210.793 12.1715C210.361 12.2704 209.97 12.3627 209.63 12.4434C209.284 12.5255 209.004 12.5921 208.77 12.6457C208.527 12.7015 208.392 12.7291 208.326 12.7405C208.291 12.7465 208.328 12.7386 208.407 12.7323C208.448 12.729 208.534 12.7233 208.649 12.726C208.747 12.7283 208.975 12.7381 209.261 12.8097L208.534 15.7201ZM211.462 15.0961L208.707 16.2854C211.293 22.2733 218.365 24.6241 226.678 24.6241V21.6241V18.6241C218.863 18.6241 215.278 16.3669 214.216 13.9068L211.462 15.0961ZM226.678 21.6241V24.6241C233.833 24.6241 239.929 22.9028 243.246 18.6759L240.886 16.8241L238.525 14.9722C236.946 16.9853 233.25 18.6241 226.678 18.6241V21.6241ZM240.886 16.8241L238.961 19.1257C241.072 20.8906 242.686 23.808 242.686 28.9681H245.686H248.686C248.686 22.4162 246.555 17.6536 242.81 14.5225L240.886 16.8241ZM245.686 28.9681H242.686C242.686 34.7362 239.457 40.6176 231.963 43.7157L233.11 46.4881L234.256 49.2605C243.946 45.2546 248.686 37.2159 248.686 28.9681H245.686ZM233.11 46.4881L231.979 43.7095C227.084 45.702 222.005 46.0722 218.074 45.9145C216.122 45.8362 214.49 45.6292 213.356 45.4443C212.791 45.3519 212.352 45.2656 212.063 45.2044C211.919 45.1738 211.813 45.1496 211.746 45.1341C211.713 45.1264 211.69 45.1209 211.678 45.1178C211.672 45.1163 211.668 45.1154 211.667 45.1152C211.667 45.1151 211.667 45.1152 211.668 45.1154C211.669 45.1155 211.669 45.1157 211.67 45.1159C211.67 45.116 211.671 45.1161 211.671 45.1162C211.672 45.1164 211.673 45.1166 210.934 48.0241C210.194 50.9316 210.195 50.9318 210.196 50.9321C210.197 50.9321 210.198 50.9324 210.198 50.9326C210.2 50.933 210.201 50.9334 210.203 50.9338C210.207 50.9347 210.211 50.9358 210.216 50.9371C210.226 50.9396 210.239 50.9428 210.255 50.9466C210.286 50.9542 210.328 50.9643 210.381 50.9766C210.486 51.0012 210.633 51.0345 210.82 51.074C211.193 51.1531 211.724 51.2572 212.39 51.3659C213.72 51.5829 215.597 51.82 217.833 51.9097C222.278 52.088 228.287 51.6902 234.241 49.2667L233.11 46.4881ZM241.75 30.8881L241.5 33.8777L243.228 34.0217L243.478 31.0321L243.727 28.0424L241.999 27.8984L241.75 30.8881ZM243.478 31.0321L246.443 31.4883C246.561 30.7211 246.622 29.9445 246.622 29.2081H243.622H240.622C240.622 29.6237 240.586 30.095 240.512 30.5759L243.478 31.0321ZM243.622 29.2081V26.2081H241.846V29.2081V32.2081H243.622V29.2081ZM241.846 29.2081H238.846C238.846 29.6333 238.811 30.0252 238.76 30.6389L241.75 30.8881L244.739 31.1372C244.784 30.5989 244.846 29.9348 244.846 29.2081H241.846ZM231.046 42.6961L228.15 43.4788L228.63 45.2548L231.526 44.4721L234.422 43.6894L233.942 41.9134L231.046 42.6961ZM231.526 44.4721L232.334 47.3612C238.943 45.513 242.448 41.3671 244.18 38.249L241.558 36.7921L238.935 35.3352C237.787 37.4011 235.437 40.2632 230.718 41.5829L231.526 44.4721ZM241.558 36.7921L244.18 38.249C245.041 36.7001 245.666 35.0459 246.063 33.3458L243.142 32.6641L240.22 31.9824C239.945 33.1622 239.515 34.292 238.935 35.3352L241.558 36.7921ZM243.142 32.6641L243.566 29.6942L241.886 29.4542L241.462 32.4241L241.037 35.3939L242.717 35.6339L243.142 32.6641ZM241.462 32.4241L238.56 31.6618C237.414 36.0247 233.26 38.993 230.266 39.7992L231.046 42.6961L231.826 45.5929C236.319 44.3832 242.533 40.1515 244.363 33.1864L241.462 32.4241ZM259.661 48.1681L259.649 51.1681L270.426 51.209L261.221 45.6055L259.661 48.1681ZM247.037 48.1201L244.057 47.771L243.666 51.1073L247.025 51.1201L247.037 48.1201ZM250.349 19.8481L253.328 20.1971L253.721 16.8481H250.349V19.8481ZM247.949 19.8481H244.949V22.8481H247.949V19.8481ZM247.949 7.56009V4.56009H244.949V7.56009H247.949ZM251.741 7.56009V10.5601H254.411L254.721 7.90773L251.741 7.56009ZM252.077 4.68008V1.68008H249.406L249.097 4.33244L252.077 4.68008ZM267.629 4.68008L270.614 4.9786L270.944 1.68008H267.629V4.68008ZM267.341 7.56009L264.356 7.26157L264.026 10.5601H267.341V7.56009ZM284.813 7.56009H287.813V4.56009H284.813V7.56009ZM284.813 19.8481V22.8481H287.813V19.8481H284.813ZM279.005 19.8481L278.234 22.7473L278.613 22.8481H279.005V19.8481ZM267.725 18.6001L264.743 18.2688L264.365 21.6693L267.786 21.5995L267.725 18.6001ZM267.869 17.3041L270.85 17.6354L271.182 14.6537L268.2 14.3224L267.869 17.3041ZM266.141 17.1121L266.472 14.1304L263.504 13.8006L263.161 16.7674L266.141 17.1121ZM264.509 31.2241L264.536 34.224L267.185 34.1999L267.489 31.5687L264.509 31.2241ZM259.229 31.2721L259.201 28.2722L258.956 28.2744L258.715 28.3165L259.229 31.2721ZM257.069 46.0081L259.397 44.1163L259.36 44.0705L259.321 44.0262L257.069 46.0081ZM259.037 9.43208H262.037V6.43208H259.037V9.43208ZM249.917 9.43208V6.43208H246.917V9.43208H249.917ZM249.917 13.6081H246.917V16.6081H249.917V13.6081ZM251.693 13.6081V16.6081H254.693V13.6081H251.693ZM251.693 11.2081V8.20808H248.693V11.2081H251.693ZM259.037 11.2081V14.2081H262.037V11.2081H259.037ZM262.301 9.43208H265.301V6.43208H262.301V9.43208ZM260.573 9.43208V6.43208H257.573V9.43208H260.573ZM260.573 11.2081H257.573V14.2081H260.573V11.2081ZM262.301 11.2081V14.2081H265.301V11.2081H262.301ZM284.861 24.2641L287.828 24.7054L288.101 22.8735L286.585 21.809L284.861 24.2641ZM283.469 33.6241L283.089 36.5999L286.004 36.9724L286.436 34.0654L283.469 33.6241ZM266.189 31.4161L263.211 31.0551L262.852 34.0141L265.809 34.3919L266.189 31.4161ZM267.533 20.3281L267.319 17.3357L264.852 17.5119L264.555 19.9671L267.533 20.3281ZM281.405 44.9521H278.405V47.9521H281.405V44.9521ZM284.765 44.9521H287.765V41.9521H284.765V44.9521ZM284.765 45.9601L286.163 48.6141L287.765 47.7701V45.9601H284.765ZM258.413 45.0001L256.146 46.9649L256.164 46.9856L256.182 47.006L258.413 45.0001ZM259.613 33.0001V30.0001H259.206L258.813 30.1087L259.613 33.0001ZM267.821 33.0001H270.821V30.0001H267.821V33.0001ZM267.821 37.8961H264.821V40.8961H267.821V37.8961ZM269.405 37.8961V40.8961H272.405V37.8961H269.405ZM269.405 35.2081V32.2081H266.405V35.2081H269.405ZM284.765 35.2081H287.765V32.2081H284.765V35.2081ZM284.765 36.7441L284.721 39.7438L287.765 39.7879V36.7441H284.765ZM281.453 36.6961L281.496 33.6964L278.453 33.6523V36.6961H281.453ZM281.453 38.3761H278.453V41.3329L281.409 41.3758L281.453 38.3761ZM284.765 38.4241H287.765V35.4672L284.808 35.4244L284.765 38.4241ZM284.765 40.0081L284.721 43.0078L287.765 43.0519V40.0081H284.765ZM281.453 39.9601L281.496 36.9604L278.538 36.9175L278.454 39.8744L281.453 39.9601ZM281.405 41.6401L278.406 41.5544L278.319 44.5963L281.362 44.6398L281.405 41.6401ZM284.765 41.6881H287.765V38.7306L284.808 38.6884L284.765 41.6881ZM284.765 43.2721V46.2721H287.765V43.2721H284.765ZM281.405 43.2721V40.2721H278.405V43.2721H281.405ZM259.661 48.1681L259.672 45.1681L247.048 45.1201L247.037 48.1201L247.025 51.1201L259.649 51.1681L259.661 48.1681ZM247.037 48.1201L250.016 48.4691L253.328 20.1971L250.349 19.8481L247.369 19.499L244.057 47.771L247.037 48.1201ZM250.349 19.8481V16.8481H247.949V19.8481V22.8481H250.349V19.8481ZM247.949 19.8481H250.949V7.56009H247.949H244.949V19.8481H247.949ZM247.949 7.56009V10.5601H251.741V7.56009V4.56009H247.949V7.56009ZM251.741 7.56009L254.721 7.90773L255.057 5.02773L252.077 4.68008L249.097 4.33244L248.761 7.21244L251.741 7.56009ZM252.077 4.68008V7.68008H267.629V4.68008V1.68008H252.077V4.68008ZM267.629 4.68008L264.644 4.38157L264.356 7.26157L267.341 7.56009L270.326 7.8586L270.614 4.9786L267.629 4.68008ZM267.341 7.56009V10.5601H284.813V7.56009V4.56009H267.341V7.56009ZM284.813 7.56009H281.813V19.8481H284.813H287.813V7.56009H284.813ZM284.813 19.8481V16.8481H279.005V19.8481V22.8481H284.813V19.8481ZM279.005 19.8481L279.776 16.9489C274.875 15.6454 270.141 15.5502 267.664 15.6007L267.725 18.6001L267.786 21.5995C270.013 21.554 274.111 21.6508 278.234 22.7473L279.005 19.8481ZM267.725 18.6001L270.706 18.9314L270.85 17.6354L267.869 17.3041L264.887 16.9728L264.743 18.2688L267.725 18.6001ZM267.869 17.3041L268.2 14.3224L266.472 14.1304L266.141 17.1121L265.809 20.0937L267.537 20.2857L267.869 17.3041ZM266.141 17.1121L263.161 16.7674L261.529 30.8794L264.509 31.2241L267.489 31.5687L269.121 17.4567L266.141 17.1121ZM264.509 31.2241L264.481 28.2242L259.201 28.2722L259.229 31.2721L259.256 34.272L264.536 34.224L264.509 31.2241ZM259.229 31.2721L258.715 28.3165C256.889 28.6339 255.429 29.8543 254.431 31.0721C253.376 32.3593 252.53 34.0046 252.034 35.8116C251.032 39.4604 251.39 44.0962 254.817 47.99L257.069 46.0081L259.321 44.0262C257.467 41.9199 257.25 39.4757 257.82 37.4006C258.109 36.3456 258.586 35.4679 259.072 34.8756C259.614 34.2138 259.912 34.1982 259.743 34.2277L259.229 31.2721ZM257.069 46.0081L254.74 47.8999C255.635 49.001 256.789 49.9321 258.101 50.7307L259.661 48.1681L261.221 45.6055C260.325 45.0601 259.75 44.5511 259.397 44.1163L257.069 46.0081ZM259.037 9.43208V6.43208H249.917V9.43208V12.4321H259.037V9.43208ZM249.917 9.43208H246.917V13.6081H249.917H252.917V9.43208H249.917ZM249.917 13.6081V16.6081H251.693V13.6081V10.6081H249.917V13.6081ZM251.693 13.6081H254.693V11.2081H251.693H248.693V13.6081H251.693ZM251.693 11.2081V14.2081H259.037V11.2081V8.20808H251.693V11.2081ZM259.037 11.2081H262.037V9.43208H259.037H256.037V11.2081H259.037ZM262.301 9.43208V6.43208H260.573V9.43208V12.4321H262.301V9.43208ZM260.573 9.43208H257.573V11.2081H260.573H263.573V9.43208H260.573ZM260.573 11.2081V14.2081H262.301V11.2081V8.20808H260.573V11.2081ZM262.301 11.2081H265.301V9.43208H262.301H259.301V11.2081H262.301ZM284.861 24.2641L281.893 23.8228L280.501 33.1828L283.469 33.6241L286.436 34.0654L287.828 24.7054L284.861 24.2641ZM283.469 33.6241L283.849 30.6483L266.569 28.4403L266.189 31.4161L265.809 34.3919L283.089 36.5999L283.469 33.6241ZM266.189 31.4161L269.167 31.7771L270.511 20.6891L267.533 20.3281L264.555 19.9671L263.211 31.0551L266.189 31.4161ZM267.533 20.3281L267.746 23.3205C267.746 23.3205 267.793 23.3174 267.893 23.3133C267.987 23.3094 268.116 23.3051 268.277 23.3016C268.6 23.2946 269.044 23.2912 269.583 23.3013C270.666 23.3215 272.111 23.3956 273.714 23.5984C277.007 24.0149 280.59 24.9308 283.137 26.7191L284.861 24.2641L286.585 21.809C282.843 19.1813 278.099 18.1052 274.467 17.6458C270.777 17.1789 267.816 17.3002 267.319 17.3357L267.533 20.3281ZM281.405 44.9521V47.9521H284.765V44.9521V41.9521H281.405V44.9521ZM284.765 44.9521H281.765V45.9601H284.765H287.765V44.9521H284.765ZM284.765 45.9601L283.366 43.3061C280.28 44.9324 275.559 46.1459 270.973 46.2063C266.278 46.2683 262.56 45.1252 260.643 42.9941L258.413 45.0001L256.182 47.006C259.834 51.0669 265.74 52.2759 271.052 52.2058C276.474 52.1343 282.145 50.7318 286.163 48.6141L284.765 45.9601ZM258.413 45.0001L260.68 43.0353C259.232 41.3652 259.072 39.5636 259.442 38.0609C259.633 37.284 259.958 36.639 260.276 36.2074C260.662 35.6823 260.787 35.7878 260.413 35.8915L259.613 33.0001L258.813 30.1087C257.31 30.5243 256.175 31.6559 255.443 32.6518C254.641 33.7411 253.988 35.1122 253.616 36.6273C252.857 39.7086 253.225 43.595 256.146 46.9649L258.413 45.0001ZM259.613 33.0001V36.0001H267.821V33.0001V30.0001H259.613V33.0001ZM267.821 33.0001H264.821V37.8961H267.821H270.821V33.0001H267.821ZM267.821 37.8961V40.8961H269.405V37.8961V34.8961H267.821V37.8961ZM269.405 37.8961H272.405V35.2081H269.405H266.405V37.8961H269.405ZM269.405 35.2081V38.2081H284.765V35.2081V32.2081H269.405V35.2081ZM284.765 35.2081H281.765V36.7441H284.765H287.765V35.2081H284.765ZM284.765 36.7441L284.808 33.7444L281.496 33.6964L281.453 36.6961L281.409 39.6958L284.721 39.7438L284.765 36.7441ZM281.453 36.6961H278.453V38.3761H281.453H284.453V36.6961H281.453ZM281.453 38.3761L281.409 41.3758L284.721 41.4238L284.765 38.4241L284.808 35.4244L281.496 35.3764L281.453 38.3761ZM284.765 38.4241H281.765V40.0081H284.765H287.765V38.4241H284.765ZM284.765 40.0081L284.808 37.0084L281.496 36.9604L281.453 39.9601L281.409 42.9598L284.721 43.0078L284.765 40.0081ZM281.453 39.9601L278.454 39.8744L278.406 41.5544L281.405 41.6401L284.404 41.7258L284.452 40.0458L281.453 39.9601ZM281.405 41.6401L281.362 44.6398L284.722 44.6878L284.765 41.6881L284.808 38.6884L281.448 38.6404L281.405 41.6401ZM284.765 41.6881H281.765V43.2721H284.765H287.765V41.6881H284.765ZM284.765 43.2721V40.2721H281.405V43.2721V46.2721H284.765V43.2721ZM281.405 43.2721H278.405V44.9521H281.405H284.405V43.2721H281.405Z" fill="#212121" mask="url(#path-1-outside-1_0_2839)"/>
</g>
<defs>
<filter id="filter0_d_0_2839" x="0" y="0" width="289.101" height="56.8975" filterUnits="userSpaceOnUse" color-interpolation-filters="sRGB">
<feFlood flood-opacity="0" result="BackgroundImageFix"/>
<feColorMatrix in="SourceAlpha" type="matrix" values="0 0 0 0 0 0 0 0 0 0 0 0 0 0 0 0 0 0 127 0" result="hardAlpha"/>
<feOffset dy="2"/>
<feGaussianBlur stdDeviation="0.5"/>
<feComposite in2="hardAlpha" operator="out"/>
<feColorMatrix type="matrix" values="0 0 0 0 0.129412 0 0 0 0 0.129412 0 0 0 0 0.129412 0 0 0 0.3 0"/>
<feBlend mode="normal" in2="BackgroundImageFix" result="effect1_dropShadow_0_2839"/>
<feBlend mode="normal" in="SourceGraphic" in2="effect1_dropShadow_0_2839" result="shape"/>
</filter>
</defs>
</svg>
